<mxfile host="app.diagrams.net" modified="2022-08-10T08:28:09.913Z" agent="5.0 (Windows NT 10.0; Win64; x64) AppleWebKit/537.36 (KHTML, like Gecko) Chrome/91.0.4472.124 Safari/537.36" etag="evQxB2kt_GF2OLV0jR09" version="20.2.3" type="github">
  <diagram id="6a731a19-8d31-9384-78a2-239565b7b9f0" name="Page-1">
    <mxGraphModel dx="2406" dy="663" grid="1" gridSize="10" guides="1" tooltips="1" connect="1" arrows="1" fold="1" page="1" pageScale="1" pageWidth="1169" pageHeight="827" background="none" math="0" shadow="0">
      <root>
        <mxCell id="0" />
        <mxCell id="1" parent="0" />
        <mxCell id="jraqnc70_kOx0N8XIIZB-289" value="" style="rounded=1;whiteSpace=wrap;html=1;labelBorderColor=none;fontSize=1;fillColor=#d5e8d4;strokeColor=#82b366;" vertex="1" parent="1">
          <mxGeometry x="-705" y="9245" width="665" height="355" as="geometry" />
        </mxCell>
        <mxCell id="jraqnc70_kOx0N8XIIZB-239" value="" style="rounded=1;whiteSpace=wrap;html=1;labelBorderColor=none;fontSize=1;fillColor=#d5e8d4;strokeColor=#82b366;" vertex="1" parent="1">
          <mxGeometry x="-540" y="8720" width="750" height="430" as="geometry" />
        </mxCell>
        <mxCell id="jraqnc70_kOx0N8XIIZB-264" value="" style="rounded=0;whiteSpace=wrap;html=1;labelBorderColor=none;fontSize=1;fillColor=#f8cecc;strokeColor=#b85450;" vertex="1" parent="1">
          <mxGeometry x="-120" y="8800" width="310" height="320" as="geometry" />
        </mxCell>
        <mxCell id="jraqnc70_kOx0N8XIIZB-240" value="" style="rounded=0;whiteSpace=wrap;html=1;labelBorderColor=none;fontSize=1;fillColor=#dae8fc;strokeColor=#6c8ebf;" vertex="1" parent="1">
          <mxGeometry x="-530" y="8800" width="410" height="320" as="geometry" />
        </mxCell>
        <mxCell id="jraqnc70_kOx0N8XIIZB-158" value="" style="rounded=0;whiteSpace=wrap;html=1;fillColor=#d5e8d4;strokeColor=#82b366;" vertex="1" parent="1">
          <mxGeometry x="-360" y="7700" width="700" height="410" as="geometry" />
        </mxCell>
        <mxCell id="jraqnc70_kOx0N8XIIZB-109" value="" style="rounded=1;labelBackgroundColor=none;fontSize=10;strokeColor=#82b366;fillColor=#d5e8d4;" vertex="1" parent="1">
          <mxGeometry x="-850" y="8200" width="310" height="260" as="geometry" />
        </mxCell>
        <mxCell id="jraqnc70_kOx0N8XIIZB-58" value="" style="rounded=1;whiteSpace=wrap;html=1;fillColor=#dae8fc;strokeColor=#6c8ebf;" vertex="1" parent="1">
          <mxGeometry x="-974.5" y="6760" width="590" height="300" as="geometry" />
        </mxCell>
        <mxCell id="2" value="start" style="shape=mxgraph.flowchart.terminator;strokeWidth=2;gradientColor=none;gradientDirection=north;fontStyle=0;html=1;" parent="1" vertex="1">
          <mxGeometry x="260" y="60" width="120" height="30" as="geometry" />
        </mxCell>
        <mxCell id="3" value="analyse project&#xa; documentation" style="shape=mxgraph.flowchart.data;strokeWidth=2;gradientColor=none;gradientDirection=north;fontStyle=0;html=1;" parent="1" vertex="1">
          <mxGeometry x="240.5" y="130" width="159" height="80" as="geometry" />
        </mxCell>
        <mxCell id="4" value="create&#xa;material&#xa;specification" style="shape=mxgraph.flowchart.data;strokeWidth=2;gradientColor=none;gradientDirection=north;fontStyle=0;html=1;" parent="1" vertex="1">
          <mxGeometry x="240.5" y="510" width="159" height="80" as="geometry" />
        </mxCell>
        <mxCell id="5" value="check for&#xa;obscurities" style="shape=mxgraph.flowchart.data;strokeWidth=2;gradientColor=none;gradientDirection=north;fontStyle=0;html=1;" parent="1" vertex="1">
          <mxGeometry x="240.5" y="250" width="159" height="80" as="geometry" />
        </mxCell>
        <mxCell id="6" value="obscurities?" style="shape=mxgraph.flowchart.decision;strokeWidth=2;gradientColor=none;gradientDirection=north;fontStyle=0;html=1;" parent="1" vertex="1">
          <mxGeometry x="271" y="390" width="98" height="57" as="geometry" />
        </mxCell>
        <mxCell id="7" style="fontStyle=1;strokeColor=#003366;strokeWidth=1;html=1;" parent="1" source="2" target="3" edge="1">
          <mxGeometry relative="1" as="geometry" />
        </mxCell>
        <mxCell id="8" style="fontStyle=1;strokeColor=#003366;strokeWidth=1;html=1;" parent="1" source="3" target="5" edge="1">
          <mxGeometry relative="1" as="geometry" />
        </mxCell>
        <mxCell id="9" style="entryX=0.5;entryY=0;entryPerimeter=0;fontStyle=1;strokeColor=#003366;strokeWidth=1;html=1;" parent="1" source="5" target="6" edge="1">
          <mxGeometry relative="1" as="geometry" />
        </mxCell>
        <mxCell id="10" value="" style="edgeStyle=elbowEdgeStyle;elbow=horizontal;entryX=0.5;entryY=0.91;entryPerimeter=0;exitX=1;exitY=0.5;exitPerimeter=0;fontStyle=1;strokeColor=#003366;strokeWidth=1;html=1;" parent="1" source="6" target="51" edge="1">
          <mxGeometry x="381" y="28.5" width="100" height="100" as="geometry">
            <mxPoint x="750" y="447" as="sourcePoint" />
            <mxPoint x="765.395" y="318.5" as="targetPoint" />
            <Array as="points">
              <mxPoint x="545" y="400" />
            </Array>
          </mxGeometry>
        </mxCell>
        <mxCell id="11" value="yes" style="text;fontStyle=0;html=1;strokeColor=none;gradientColor=none;fillColor=none;strokeWidth=2;" parent="1" vertex="1">
          <mxGeometry x="370" y="390" width="40" height="26" as="geometry" />
        </mxCell>
        <mxCell id="12" value="" style="edgeStyle=elbowEdgeStyle;elbow=horizontal;fontColor=#001933;fontStyle=1;strokeColor=#003366;strokeWidth=1;html=1;" parent="1" source="6" target="4" edge="1">
          <mxGeometry width="100" height="100" as="geometry">
            <mxPoint y="100" as="sourcePoint" />
            <mxPoint x="100" as="targetPoint" />
          </mxGeometry>
        </mxCell>
        <mxCell id="13" value="order material" style="shape=mxgraph.flowchart.data;strokeWidth=2;gradientColor=none;gradientDirection=north;fontStyle=0;html=1;" parent="1" vertex="1">
          <mxGeometry x="240.5" y="640" width="159" height="80" as="geometry" />
        </mxCell>
        <mxCell id="14" value="no" style="text;fontStyle=0;html=1;strokeColor=none;gradientColor=none;fillColor=none;strokeWidth=2;align=center;" parent="1" vertex="1">
          <mxGeometry x="320" y="447" width="40" height="26" as="geometry" />
        </mxCell>
        <mxCell id="15" value="final project" style="shape=mxgraph.flowchart.document;strokeWidth=2;gradientColor=none;gradientDirection=north;fontStyle=0;html=1;" parent="1" vertex="1">
          <mxGeometry x="480" y="515" width="140" height="70" as="geometry" />
        </mxCell>
        <mxCell id="16" value="" style="edgeStyle=elbowEdgeStyle;elbow=horizontal;exitX=0.905;exitY=0.5;exitPerimeter=0;fontStyle=1;strokeColor=#003366;strokeWidth=1;html=1;" parent="1" source="4" target="15" edge="1">
          <mxGeometry width="100" height="100" as="geometry">
            <mxPoint y="100" as="sourcePoint" />
            <mxPoint x="100" as="targetPoint" />
          </mxGeometry>
        </mxCell>
        <mxCell id="17" value="" style="edgeStyle=elbowEdgeStyle;elbow=horizontal;fontStyle=1;strokeColor=#003366;strokeWidth=1;html=1;" parent="1" source="4" target="13" edge="1">
          <mxGeometry width="100" height="100" as="geometry">
            <mxPoint y="100" as="sourcePoint" />
            <mxPoint x="100" as="targetPoint" />
          </mxGeometry>
        </mxCell>
        <mxCell id="18" value="material&#xa;balance" style="shape=mxgraph.flowchart.predefined_process;strokeWidth=2;gradientColor=none;gradientDirection=north;fontStyle=0;html=1;" parent="1" vertex="1">
          <mxGeometry x="480" y="635" width="190" height="90" as="geometry" />
        </mxCell>
        <mxCell id="19" value="" style="edgeStyle=elbowEdgeStyle;elbow=horizontal;exitX=0.905;exitY=0.5;exitPerimeter=0;fontStyle=1;strokeColor=#003366;strokeWidth=1;html=1;" parent="1" source="13" target="18" edge="1">
          <mxGeometry width="100" height="100" as="geometry">
            <mxPoint y="100" as="sourcePoint" />
            <mxPoint x="100" as="targetPoint" />
          </mxGeometry>
        </mxCell>
        <mxCell id="20" value="organize &#xa;workforce" style="shape=mxgraph.flowchart.manual_input;strokeWidth=2;gradientColor=none;gradientDirection=north;fontStyle=0;html=1;" parent="1" vertex="1">
          <mxGeometry x="242" y="780" width="158" height="80" as="geometry" />
        </mxCell>
        <mxCell id="21" value="" style="edgeStyle=elbowEdgeStyle;elbow=horizontal;entryX=0.5;entryY=0.195;entryPerimeter=0;fontStyle=1;strokeColor=#003366;strokeWidth=1;html=1;" parent="1" source="13" target="20" edge="1">
          <mxGeometry width="100" height="100" as="geometry">
            <mxPoint y="100" as="sourcePoint" />
            <mxPoint x="100" as="targetPoint" />
          </mxGeometry>
        </mxCell>
        <mxCell id="22" value="create Gantt&#xa;diagram" style="shape=mxgraph.flowchart.document;strokeWidth=2;gradientColor=none;gradientDirection=north;fontStyle=0;html=1;" parent="1" vertex="1">
          <mxGeometry x="240.5" y="920" width="159" height="90" as="geometry" />
        </mxCell>
        <mxCell id="23" value="" style="edgeStyle=elbowEdgeStyle;elbow=horizontal;exitX=0.5;exitY=1;exitPerimeter=0;fontStyle=1;strokeColor=#003366;strokeWidth=1;html=1;" parent="1" source="20" target="22" edge="1">
          <mxGeometry width="100" height="100" as="geometry">
            <mxPoint y="100" as="sourcePoint" />
            <mxPoint x="100" as="targetPoint" />
          </mxGeometry>
        </mxCell>
        <mxCell id="24" value="late&#xa;project&#xa;changes?" style="shape=mxgraph.flowchart.decision;strokeWidth=2;gradientColor=none;gradientDirection=north;fontStyle=0;html=1;" parent="1" vertex="1">
          <mxGeometry x="261.5" y="1080" width="119" height="78.5" as="geometry" />
        </mxCell>
        <mxCell id="25" value="" style="edgeStyle=elbowEdgeStyle;elbow=horizontal;exitX=0.5;exitY=0.9;exitPerimeter=0;fontStyle=1;strokeColor=#003366;strokeWidth=1;html=1;" parent="1" source="22" target="24" edge="1">
          <mxGeometry width="100" height="100" as="geometry">
            <mxPoint y="100" as="sourcePoint" />
            <mxPoint x="100" as="targetPoint" />
          </mxGeometry>
        </mxCell>
        <mxCell id="26" value="" style="edgeStyle=elbowEdgeStyle;elbow=horizontal;exitX=0;exitY=0.5;exitPerimeter=0;entryX=0;entryY=0.5;entryPerimeter=0;fontStyle=1;strokeColor=#003366;strokeWidth=1;html=1;" parent="1" source="28" target="6" edge="1">
          <mxGeometry width="100" height="100" as="geometry">
            <mxPoint y="100" as="sourcePoint" />
            <mxPoint x="100" as="targetPoint" />
            <Array as="points">
              <mxPoint x="160" y="850" />
            </Array>
          </mxGeometry>
        </mxCell>
        <mxCell id="27" value="yes" style="text;fontStyle=0;html=1;strokeColor=none;gradientColor=none;fillColor=none;strokeWidth=2;" parent="1" vertex="1">
          <mxGeometry x="280" y="1158.5" width="40" height="26" as="geometry" />
        </mxCell>
        <mxCell id="28" value="investor&#xa;disapproves&#xa; investment?" style="shape=mxgraph.flowchart.decision;strokeWidth=2;gradientColor=none;gradientDirection=north;fontStyle=0;html=1;" parent="1" vertex="1">
          <mxGeometry x="255" y="1210" width="130" height="100" as="geometry" />
        </mxCell>
        <mxCell id="29" value="agreement?" style="shape=mxgraph.flowchart.decision;strokeWidth=2;gradientColor=none;gradientDirection=north;fontStyle=0;html=1;" parent="1" vertex="1">
          <mxGeometry x="510" y="1210" width="130" height="100" as="geometry" />
        </mxCell>
        <mxCell id="30" value="" style="edgeStyle=elbowEdgeStyle;elbow=horizontal;exitX=0.5;exitY=1;exitPerimeter=0;fontStyle=1;strokeColor=#003366;strokeWidth=1;html=1;" parent="1" source="24" target="28" edge="1">
          <mxGeometry width="100" height="100" as="geometry">
            <mxPoint y="100" as="sourcePoint" />
            <mxPoint x="100" as="targetPoint" />
          </mxGeometry>
        </mxCell>
        <mxCell id="31" value="" style="edgeStyle=elbowEdgeStyle;elbow=horizontal;exitX=1;exitY=0.5;exitPerimeter=0;entryX=0;entryY=0.5;entryPerimeter=0;fontStyle=1;strokeColor=#003366;strokeWidth=1;html=1;" parent="1" source="28" target="29" edge="1">
          <mxGeometry width="100" height="100" as="geometry">
            <mxPoint y="100" as="sourcePoint" />
            <mxPoint x="100" as="targetPoint" />
          </mxGeometry>
        </mxCell>
        <mxCell id="32" value="terminate&#xa;contract&#xa;" style="shape=mxgraph.flowchart.merge_or_storage;strokeWidth=2;gradientColor=none;gradientDirection=north;fontStyle=0;html=1;" parent="1" vertex="1">
          <mxGeometry x="760" y="1300" width="130" height="80.5" as="geometry" />
        </mxCell>
        <mxCell id="33" value="" style="edgeStyle=elbowEdgeStyle;elbow=vertical;exitX=1;exitY=0.5;exitPerimeter=0;entryX=0.5;entryY=0;entryPerimeter=0;fontStyle=1;strokeColor=#003366;strokeWidth=1;html=1;" parent="1" source="29" target="32" edge="1">
          <mxGeometry width="100" height="100" as="geometry">
            <mxPoint y="100" as="sourcePoint" />
            <mxPoint x="100" as="targetPoint" />
            <Array as="points">
              <mxPoint x="740" y="1260" />
            </Array>
          </mxGeometry>
        </mxCell>
        <mxCell id="34" value="create&#xa;status&#xa;report" style="shape=mxgraph.flowchart.data;strokeWidth=2;gradientColor=none;gradientDirection=north;fontStyle=0;html=1;" parent="1" vertex="1">
          <mxGeometry x="240.5" y="1490" width="159" height="80" as="geometry" />
        </mxCell>
        <mxCell id="35" value="" style="edgeStyle=elbowEdgeStyle;elbow=vertical;exitX=0.5;exitY=1;exitPerimeter=0;fontColor=#001933;fontStyle=1;strokeColor=#003366;strokeWidth=1;html=1;" parent="1" source="28" target="34" edge="1">
          <mxGeometry width="100" height="100" as="geometry">
            <mxPoint y="100" as="sourcePoint" />
            <mxPoint x="100" as="targetPoint" />
          </mxGeometry>
        </mxCell>
        <mxCell id="36" value="" style="edgeStyle=elbowEdgeStyle;elbow=vertical;exitX=0.5;exitY=1;exitPerimeter=0;entryX=0.5;entryY=0;entryPerimeter=0;fontStyle=1;strokeColor=#003366;strokeWidth=1;html=1;" parent="1" source="29" target="34" edge="1">
          <mxGeometry width="100" height="100" as="geometry">
            <mxPoint y="100" as="sourcePoint" />
            <mxPoint x="100" as="targetPoint" />
          </mxGeometry>
        </mxCell>
        <mxCell id="37" value="project&#xa;complete?" style="shape=mxgraph.flowchart.decision;strokeWidth=2;gradientColor=none;gradientDirection=north;fontStyle=0;html=1;" parent="1" vertex="1">
          <mxGeometry x="271" y="1621.5" width="98" height="57" as="geometry" />
        </mxCell>
        <mxCell id="38" value="create&#xa;final&#xa;report" style="shape=mxgraph.flowchart.data;strokeWidth=2;gradientColor=none;gradientDirection=north;fontStyle=0;html=1;" parent="1" vertex="1">
          <mxGeometry x="240.5" y="1730" width="159" height="80" as="geometry" />
        </mxCell>
        <mxCell id="39" value="issue&#xa;bill of works" style="shape=mxgraph.flowchart.predefined_process;strokeWidth=2;gradientColor=none;gradientDirection=north;fontStyle=0;html=1;" parent="1" vertex="1">
          <mxGeometry x="560" y="1725" width="190" height="90" as="geometry" />
        </mxCell>
        <mxCell id="40" value="end" style="shape=mxgraph.flowchart.terminator;strokeWidth=2;gradientColor=none;gradientDirection=north;fontStyle=0;html=1;" parent="1" vertex="1">
          <mxGeometry x="260" y="1910" width="120" height="30" as="geometry" />
        </mxCell>
        <mxCell id="41" value="" style="edgeStyle=elbowEdgeStyle;elbow=vertical;exitX=0.5;exitY=1;exitPerimeter=0;entryX=0.5;entryY=0;entryPerimeter=0;fontStyle=1;strokeColor=#003366;strokeWidth=1;html=1;" parent="1" source="34" target="37" edge="1">
          <mxGeometry width="100" height="100" as="geometry">
            <mxPoint y="100" as="sourcePoint" />
            <mxPoint x="100" as="targetPoint" />
          </mxGeometry>
        </mxCell>
        <mxCell id="42" value="" style="edgeStyle=elbowEdgeStyle;elbow=vertical;exitX=0.5;exitY=1;exitPerimeter=0;entryX=0.5;entryY=0;entryPerimeter=0;fontStyle=1;strokeColor=#003366;strokeWidth=1;html=1;" parent="1" source="37" target="38" edge="1">
          <mxGeometry width="100" height="100" as="geometry">
            <mxPoint y="100" as="sourcePoint" />
            <mxPoint x="100" as="targetPoint" />
          </mxGeometry>
        </mxCell>
        <mxCell id="43" value="" style="edgeStyle=elbowEdgeStyle;elbow=vertical;exitX=0.5;exitY=1;exitPerimeter=0;entryX=0.5;entryY=0;entryPerimeter=0;fontStyle=1;strokeColor=#003366;strokeWidth=1;html=1;" parent="1" source="38" target="40" edge="1">
          <mxGeometry width="100" height="100" as="geometry">
            <mxPoint y="100" as="sourcePoint" />
            <mxPoint x="100" as="targetPoint" />
          </mxGeometry>
        </mxCell>
        <mxCell id="44" value="" style="edgeStyle=elbowEdgeStyle;elbow=vertical;exitX=0.905;exitY=0.5;exitPerimeter=0;entryX=0;entryY=0.5;entryPerimeter=0;fontStyle=1;strokeColor=#003366;strokeWidth=1;html=1;" parent="1" source="38" target="39" edge="1">
          <mxGeometry width="100" height="100" as="geometry">
            <mxPoint y="100" as="sourcePoint" />
            <mxPoint x="100" as="targetPoint" />
          </mxGeometry>
        </mxCell>
        <mxCell id="45" value="" style="edgeStyle=elbowEdgeStyle;elbow=horizontal;exitX=1;exitY=0.5;exitPerimeter=0;entryX=0.905;entryY=0.5;entryPerimeter=0;fontStyle=1;strokeColor=#003366;strokeWidth=1;html=1;" parent="1" source="24" target="34" edge="1">
          <mxGeometry width="100" height="100" as="geometry">
            <mxPoint y="100" as="sourcePoint" />
            <mxPoint x="100" as="targetPoint" />
            <Array as="points">
              <mxPoint x="950" y="1320" />
            </Array>
          </mxGeometry>
        </mxCell>
        <mxCell id="46" value="no" style="text;fontStyle=0;html=1;strokeColor=none;gradientColor=none;fillColor=none;strokeWidth=2;" parent="1" vertex="1">
          <mxGeometry x="380.5" y="1093.25" width="40" height="26" as="geometry" />
        </mxCell>
        <mxCell id="47" value="yes" style="text;fontColor=#001933;fontStyle=0;html=1;strokeColor=none;gradientColor=none;fillColor=none;strokeWidth=2;" parent="1" vertex="1">
          <mxGeometry x="385" y="1234" width="40" height="26" as="geometry" />
        </mxCell>
        <mxCell id="48" value="no" style="text;fontColor=#001933;fontStyle=0;html=1;strokeColor=none;gradientColor=none;fillColor=none;strokeWidth=2;align=center;" parent="1" vertex="1">
          <mxGeometry x="320" y="1310" width="40" height="26" as="geometry" />
        </mxCell>
        <mxCell id="49" value="yes" style="text;fontColor=#001933;fontStyle=0;html=1;strokeColor=none;gradientColor=none;fillColor=none;strokeWidth=2;align=center;" parent="1" vertex="1">
          <mxGeometry x="575" y="1310" width="40" height="26" as="geometry" />
        </mxCell>
        <mxCell id="50" value="no" style="text;fontColor=#001933;fontStyle=0;html=1;strokeColor=none;gradientColor=none;fillColor=none;strokeWidth=2;" parent="1" vertex="1">
          <mxGeometry x="640" y="1234" width="40" height="26" as="geometry" />
        </mxCell>
        <mxCell id="51" value="iron out&#xa;obscurities &#xa;with investor" style="shape=mxgraph.flowchart.paper_tape;strokeWidth=2;gradientColor=none;gradientDirection=north;fontStyle=0;html=1;" parent="1" vertex="1">
          <mxGeometry x="470" y="300" width="150" height="81" as="geometry" />
        </mxCell>
        <mxCell id="52" value="" style="edgeStyle=elbowEdgeStyle;elbow=horizontal;exitX=0.5;exitY=0.09;exitPerimeter=0;entryX=0.905;entryY=0.5;entryPerimeter=0;fontStyle=1;strokeColor=#003366;strokeWidth=1;html=1;" parent="1" source="51" target="5" edge="1">
          <mxGeometry width="100" height="100" as="geometry">
            <mxPoint y="100" as="sourcePoint" />
            <mxPoint x="100" as="targetPoint" />
            <Array as="points">
              <mxPoint x="545" y="300" />
            </Array>
          </mxGeometry>
        </mxCell>
        <mxCell id="53" value="yes" style="text;fontStyle=0;html=1;strokeColor=none;gradientColor=none;fillColor=none;strokeWidth=2;align=center;" parent="1" vertex="1">
          <mxGeometry x="321" y="1680" width="40" height="26" as="geometry" />
        </mxCell>
        <mxCell id="54" value="" style="edgeStyle=elbowEdgeStyle;elbow=horizontal;exitX=0;exitY=0.5;exitPerimeter=0;entryX=0.095;entryY=0.5;entryPerimeter=0;fontStyle=1;strokeColor=#003366;strokeWidth=1;html=1;" parent="1" source="37" target="5" edge="1">
          <mxGeometry width="100" height="100" as="geometry">
            <mxPoint y="100" as="sourcePoint" />
            <mxPoint x="100" as="targetPoint" />
            <Array as="points">
              <mxPoint x="120" y="970" />
            </Array>
          </mxGeometry>
        </mxCell>
        <mxCell id="55" value="no" style="text;fontStyle=0;html=1;strokeColor=none;gradientColor=none;fillColor=none;strokeWidth=2;" parent="1" vertex="1">
          <mxGeometry x="235" y="1624" width="40" height="26" as="geometry" />
        </mxCell>
        <mxCell id="T3vnycwtbMoYDpABDEtK-55" value="" style="rounded=1;whiteSpace=wrap;html=1;" parent="1" vertex="1">
          <mxGeometry x="520" y="360" width="120" height="60" as="geometry" />
        </mxCell>
        <mxCell id="T3vnycwtbMoYDpABDEtK-92" value="BDG IRQ" style="rounded=1;whiteSpace=wrap;html=1;" parent="1" vertex="1">
          <mxGeometry x="431" y="2540" width="120" height="60" as="geometry" />
        </mxCell>
        <mxCell id="T3vnycwtbMoYDpABDEtK-93" value="hostIntfBridgeRead" style="rounded=1;whiteSpace=wrap;html=1;" parent="1" vertex="1">
          <mxGeometry x="431" y="2610" width="120" height="60" as="geometry" />
        </mxCell>
        <mxCell id="T3vnycwtbMoYDpABDEtK-94" value="hostIntfRxDone" style="rounded=1;whiteSpace=wrap;html=1;" parent="1" vertex="1">
          <mxGeometry x="431" y="2680" width="120" height="60" as="geometry" />
        </mxCell>
        <mxCell id="T3vnycwtbMoYDpABDEtK-95" value="hostIntfGenerateAck" style="rounded=1;whiteSpace=wrap;html=1;" parent="1" vertex="1">
          <mxGeometry x="431" y="2750" width="120" height="60" as="geometry" />
        </mxCell>
        <mxCell id="T3vnycwtbMoYDpABDEtK-96" value="hostIntfFindHandler" style="rounded=1;whiteSpace=wrap;html=1;" parent="1" vertex="1">
          <mxGeometry x="431" y="2820" width="120" height="60" as="geometry" />
        </mxCell>
        <mxCell id="T3vnycwtbMoYDpABDEtK-97" value="mRxCmd-&amp;gt;fastHandler" style="rounded=1;whiteSpace=wrap;html=1;" parent="1" vertex="1">
          <mxGeometry x="431" y="2890" width="120" height="60" as="geometry" />
        </mxCell>
        <mxCell id="T3vnycwtbMoYDpABDEtK-98" value="hostIntfTxSendAck" style="rounded=1;whiteSpace=wrap;html=1;" parent="1" vertex="1">
          <mxGeometry x="431" y="2965" width="120" height="60" as="geometry" />
        </mxCell>
        <mxCell id="T3vnycwtbMoYDpABDEtK-99" style="edgeStyle=orthogonalEdgeStyle;rounded=0;orthogonalLoop=1;jettySize=auto;html=1;exitX=0.5;exitY=1;exitDx=0;exitDy=0;entryX=0.5;entryY=0;entryDx=0;entryDy=0;" parent="1" source="T3vnycwtbMoYDpABDEtK-100" target="T3vnycwtbMoYDpABDEtK-101" edge="1">
          <mxGeometry relative="1" as="geometry" />
        </mxCell>
        <mxCell id="T3vnycwtbMoYDpABDEtK-100" value="&lt;font style=&quot;font-size: 11px&quot;&gt;hostIntfTxPacket&lt;/font&gt;" style="rounded=1;whiteSpace=wrap;html=1;" parent="1" vertex="1">
          <mxGeometry x="321" y="3150" width="120" height="60" as="geometry" />
        </mxCell>
        <mxCell id="T3vnycwtbMoYDpABDEtK-101" value="hostIntfTxBuf" style="rounded=1;whiteSpace=wrap;html=1;" parent="1" vertex="1">
          <mxGeometry x="321" y="3230" width="120" height="60" as="geometry" />
        </mxCell>
        <mxCell id="T3vnycwtbMoYDpABDEtK-102" style="edgeStyle=orthogonalEdgeStyle;rounded=0;orthogonalLoop=1;jettySize=auto;html=1;exitX=0;exitY=0.5;exitDx=0;exitDy=0;exitPerimeter=0;" parent="1" source="T3vnycwtbMoYDpABDEtK-104" target="T3vnycwtbMoYDpABDEtK-100" edge="1">
          <mxGeometry relative="1" as="geometry" />
        </mxCell>
        <mxCell id="T3vnycwtbMoYDpABDEtK-103" style="edgeStyle=orthogonalEdgeStyle;rounded=0;orthogonalLoop=1;jettySize=auto;html=1;exitX=1;exitY=0.5;exitDx=0;exitDy=0;exitPerimeter=0;entryX=0.5;entryY=0;entryDx=0;entryDy=0;" parent="1" source="T3vnycwtbMoYDpABDEtK-104" target="T3vnycwtbMoYDpABDEtK-105" edge="1">
          <mxGeometry relative="1" as="geometry" />
        </mxCell>
        <mxCell id="T3vnycwtbMoYDpABDEtK-104" value="&lt;font style=&quot;font-size: 6px&quot;&gt;NANOHUB_FAST&lt;br style=&quot;font-size: 6px&quot;&gt;_UNHANDLED_ACK&lt;/font&gt;" style="shape=mxgraph.flowchart.decision;strokeWidth=2;gradientColor=none;gradientDirection=north;fontStyle=0;html=1;" parent="1" vertex="1">
          <mxGeometry x="401.5" y="3030" width="179" height="98.5" as="geometry" />
        </mxCell>
        <mxCell id="T3vnycwtbMoYDpABDEtK-105" value="&lt;font style=&quot;font-size: 11px&quot;&gt;hostIntfTxAckDone&lt;/font&gt;" style="rounded=1;whiteSpace=wrap;html=1;" parent="1" vertex="1">
          <mxGeometry x="561" y="3150" width="120" height="60" as="geometry" />
        </mxCell>
        <mxCell id="T3vnycwtbMoYDpABDEtK-106" value="hostIntfGenerateResponse" style="rounded=1;whiteSpace=wrap;html=1;" parent="1" vertex="1">
          <mxGeometry x="561" y="3230" width="120" height="60" as="geometry" />
        </mxCell>
        <mxCell id="T3vnycwtbMoYDpABDEtK-107" style="edgeStyle=orthogonalEdgeStyle;rounded=0;orthogonalLoop=1;jettySize=auto;html=1;entryX=1;entryY=0.5;entryDx=0;entryDy=0;" parent="1" source="T3vnycwtbMoYDpABDEtK-108" target="T3vnycwtbMoYDpABDEtK-100" edge="1">
          <mxGeometry relative="1" as="geometry" />
        </mxCell>
        <mxCell id="T3vnycwtbMoYDpABDEtK-108" value="mRxCmd-&amp;gt;handler" style="rounded=1;whiteSpace=wrap;html=1;" parent="1" vertex="1">
          <mxGeometry x="561" y="3300" width="120" height="60" as="geometry" />
        </mxCell>
        <mxCell id="T3vnycwtbMoYDpABDEtK-109" value="hostIntfTxComplete" style="rounded=1;whiteSpace=wrap;html=1;" parent="1" vertex="1">
          <mxGeometry x="321" y="3310" width="120" height="60" as="geometry" />
        </mxCell>
        <mxCell id="T3vnycwtbMoYDpABDEtK-126" style="edgeStyle=orthogonalEdgeStyle;rounded=0;orthogonalLoop=1;jettySize=auto;html=1;exitX=0.5;exitY=1;exitDx=0;exitDy=0;entryX=0.5;entryY=0;entryDx=0;entryDy=0;entryPerimeter=0;" parent="1" source="T3vnycwtbMoYDpABDEtK-110" target="T3vnycwtbMoYDpABDEtK-115" edge="1">
          <mxGeometry relative="1" as="geometry" />
        </mxCell>
        <mxCell id="T3vnycwtbMoYDpABDEtK-110" value="fastHandler" style="rounded=1;whiteSpace=wrap;html=1;" parent="1" vertex="1">
          <mxGeometry x="-599" y="3510" width="120" height="60" as="geometry" />
        </mxCell>
        <mxCell id="T3vnycwtbMoYDpABDEtK-137" style="edgeStyle=orthogonalEdgeStyle;rounded=0;orthogonalLoop=1;jettySize=auto;html=1;exitX=0.5;exitY=1;exitDx=0;exitDy=0;entryX=0.5;entryY=0;entryDx=0;entryDy=0;entryPerimeter=0;" parent="1" source="T3vnycwtbMoYDpABDEtK-111" target="T3vnycwtbMoYDpABDEtK-135" edge="1">
          <mxGeometry relative="1" as="geometry" />
        </mxCell>
        <mxCell id="T3vnycwtbMoYDpABDEtK-111" value="fastHandler &amp;amp;&amp;amp; handler" style="rounded=1;whiteSpace=wrap;html=1;" parent="1" vertex="1">
          <mxGeometry x="-415" y="3510" width="120" height="60" as="geometry" />
        </mxCell>
        <mxCell id="T3vnycwtbMoYDpABDEtK-130" style="edgeStyle=orthogonalEdgeStyle;rounded=0;orthogonalLoop=1;jettySize=auto;html=1;exitX=0.5;exitY=1;exitDx=0;exitDy=0;entryX=0.5;entryY=0;entryDx=0;entryDy=0;entryPerimeter=0;" parent="1" source="T3vnycwtbMoYDpABDEtK-112" target="T3vnycwtbMoYDpABDEtK-118" edge="1">
          <mxGeometry relative="1" as="geometry" />
        </mxCell>
        <mxCell id="T3vnycwtbMoYDpABDEtK-112" value="handler" style="rounded=1;whiteSpace=wrap;html=1;" parent="1" vertex="1">
          <mxGeometry x="-210" y="3510" width="120" height="60" as="geometry" />
        </mxCell>
        <mxCell id="T3vnycwtbMoYDpABDEtK-128" style="edgeStyle=orthogonalEdgeStyle;rounded=0;orthogonalLoop=1;jettySize=auto;html=1;exitX=0.5;exitY=1;exitDx=0;exitDy=0;entryX=0.5;entryY=0;entryDx=0;entryDy=0;" parent="1" source="T3vnycwtbMoYDpABDEtK-113" target="T3vnycwtbMoYDpABDEtK-116" edge="1">
          <mxGeometry relative="1" as="geometry" />
        </mxCell>
        <mxCell id="T3vnycwtbMoYDpABDEtK-113" value="hostIntfTxPacket:&lt;br&gt;MSG" style="rounded=1;whiteSpace=wrap;html=1;" parent="1" vertex="1">
          <mxGeometry x="-598.5" y="3670" width="120" height="60" as="geometry" />
        </mxCell>
        <mxCell id="T3vnycwtbMoYDpABDEtK-127" style="edgeStyle=orthogonalEdgeStyle;rounded=0;orthogonalLoop=1;jettySize=auto;html=1;exitX=0.5;exitY=1;exitDx=0;exitDy=0;exitPerimeter=0;entryX=0.5;entryY=0;entryDx=0;entryDy=0;" parent="1" source="T3vnycwtbMoYDpABDEtK-115" target="T3vnycwtbMoYDpABDEtK-113" edge="1">
          <mxGeometry relative="1" as="geometry" />
        </mxCell>
        <mxCell id="T3vnycwtbMoYDpABDEtK-115" value="resp != &lt;br&gt;un handle ack&lt;br&gt;&amp;nbsp;or&amp;nbsp; not ack" style="shape=mxgraph.flowchart.decision;strokeWidth=2;gradientColor=none;gradientDirection=north;fontStyle=0;html=1;" parent="1" vertex="1">
          <mxGeometry x="-587.5" y="3590" width="98" height="57" as="geometry" />
        </mxCell>
        <mxCell id="T3vnycwtbMoYDpABDEtK-129" style="edgeStyle=orthogonalEdgeStyle;rounded=0;orthogonalLoop=1;jettySize=auto;html=1;exitX=0.5;exitY=1;exitDx=0;exitDy=0;entryX=0.5;entryY=0;entryDx=0;entryDy=0;" parent="1" source="T3vnycwtbMoYDpABDEtK-116" target="T3vnycwtbMoYDpABDEtK-117" edge="1">
          <mxGeometry relative="1" as="geometry" />
        </mxCell>
        <mxCell id="T3vnycwtbMoYDpABDEtK-116" value="callback:&lt;br&gt;hostIntfTxPayloadDone" style="rounded=1;whiteSpace=wrap;html=1;" parent="1" vertex="1">
          <mxGeometry x="-598.5" y="3750" width="120" height="60" as="geometry" />
        </mxCell>
        <mxCell id="T3vnycwtbMoYDpABDEtK-117" value="hostIntfTxComplete" style="rounded=1;whiteSpace=wrap;html=1;" parent="1" vertex="1">
          <mxGeometry x="-600" y="3830" width="120" height="60" as="geometry" />
        </mxCell>
        <mxCell id="T3vnycwtbMoYDpABDEtK-131" style="edgeStyle=orthogonalEdgeStyle;rounded=0;orthogonalLoop=1;jettySize=auto;html=1;exitX=0.5;exitY=1;exitDx=0;exitDy=0;exitPerimeter=0;entryX=0.5;entryY=0;entryDx=0;entryDy=0;" parent="1" source="T3vnycwtbMoYDpABDEtK-118" target="T3vnycwtbMoYDpABDEtK-119" edge="1">
          <mxGeometry relative="1" as="geometry" />
        </mxCell>
        <mxCell id="T3vnycwtbMoYDpABDEtK-118" value="resp == &lt;br&gt;un handle ack&lt;br&gt;&amp;nbsp;" style="shape=mxgraph.flowchart.decision;strokeWidth=2;gradientColor=none;gradientDirection=north;fontStyle=0;html=1;" parent="1" vertex="1">
          <mxGeometry x="-199" y="3590" width="98" height="57" as="geometry" />
        </mxCell>
        <mxCell id="T3vnycwtbMoYDpABDEtK-132" style="edgeStyle=orthogonalEdgeStyle;rounded=0;orthogonalLoop=1;jettySize=auto;html=1;exitX=0.5;exitY=1;exitDx=0;exitDy=0;entryX=0.5;entryY=0;entryDx=0;entryDy=0;" parent="1" source="T3vnycwtbMoYDpABDEtK-119" target="T3vnycwtbMoYDpABDEtK-120" edge="1">
          <mxGeometry relative="1" as="geometry" />
        </mxCell>
        <mxCell id="T3vnycwtbMoYDpABDEtK-119" value="hostIntfTxPacket:&lt;br&gt;ACK" style="rounded=1;whiteSpace=wrap;html=1;" parent="1" vertex="1">
          <mxGeometry x="-210" y="3670" width="120" height="60" as="geometry" />
        </mxCell>
        <mxCell id="T3vnycwtbMoYDpABDEtK-133" style="edgeStyle=orthogonalEdgeStyle;rounded=0;orthogonalLoop=1;jettySize=auto;html=1;exitX=0.5;exitY=1;exitDx=0;exitDy=0;entryX=0.5;entryY=0;entryDx=0;entryDy=0;entryPerimeter=0;" parent="1" source="T3vnycwtbMoYDpABDEtK-120" target="T3vnycwtbMoYDpABDEtK-122" edge="1">
          <mxGeometry relative="1" as="geometry" />
        </mxCell>
        <mxCell id="T3vnycwtbMoYDpABDEtK-120" value="callback:&lt;br&gt;hostIntfTxAckDone" style="rounded=1;whiteSpace=wrap;html=1;" parent="1" vertex="1">
          <mxGeometry x="-210" y="3750" width="120" height="60" as="geometry" />
        </mxCell>
        <mxCell id="T3vnycwtbMoYDpABDEtK-125" style="edgeStyle=orthogonalEdgeStyle;rounded=0;orthogonalLoop=1;jettySize=auto;html=1;entryX=1;entryY=0.5;entryDx=0;entryDy=0;" parent="1" source="T3vnycwtbMoYDpABDEtK-121" target="T3vnycwtbMoYDpABDEtK-116" edge="1">
          <mxGeometry relative="1" as="geometry" />
        </mxCell>
        <mxCell id="T3vnycwtbMoYDpABDEtK-121" value="hostIntfGenerateResponse" style="rounded=1;whiteSpace=wrap;html=1;" parent="1" vertex="1">
          <mxGeometry x="-230" y="3910" width="160" height="60" as="geometry" />
        </mxCell>
        <mxCell id="T3vnycwtbMoYDpABDEtK-124" style="edgeStyle=orthogonalEdgeStyle;rounded=0;orthogonalLoop=1;jettySize=auto;html=1;exitX=0.5;exitY=1;exitDx=0;exitDy=0;exitPerimeter=0;" parent="1" source="T3vnycwtbMoYDpABDEtK-122" target="T3vnycwtbMoYDpABDEtK-121" edge="1">
          <mxGeometry relative="1" as="geometry" />
        </mxCell>
        <mxCell id="T3vnycwtbMoYDpABDEtK-122" value="mRestartRx?" style="shape=mxgraph.flowchart.decision;strokeWidth=2;gradientColor=none;gradientDirection=north;fontStyle=0;html=1;" parent="1" vertex="1">
          <mxGeometry x="-199" y="3833" width="98" height="57" as="geometry" />
        </mxCell>
        <mxCell id="T3vnycwtbMoYDpABDEtK-136" value="" style="edgeStyle=orthogonalEdgeStyle;rounded=0;orthogonalLoop=1;jettySize=auto;html=1;" parent="1" source="T3vnycwtbMoYDpABDEtK-135" target="T3vnycwtbMoYDpABDEtK-115" edge="1">
          <mxGeometry relative="1" as="geometry" />
        </mxCell>
        <mxCell id="T3vnycwtbMoYDpABDEtK-138" style="edgeStyle=orthogonalEdgeStyle;rounded=0;orthogonalLoop=1;jettySize=auto;html=1;" parent="1" source="T3vnycwtbMoYDpABDEtK-135" target="T3vnycwtbMoYDpABDEtK-118" edge="1">
          <mxGeometry relative="1" as="geometry" />
        </mxCell>
        <mxCell id="T3vnycwtbMoYDpABDEtK-135" value="resp" style="shape=mxgraph.flowchart.decision;strokeWidth=2;gradientColor=none;gradientDirection=north;fontStyle=0;html=1;" parent="1" vertex="1">
          <mxGeometry x="-403" y="3590" width="93" height="57" as="geometry" />
        </mxCell>
        <mxCell id="pI9McHAt1SIaVRNVlYuP-62" value="ActiveSensor::HostIntfDataBuffer" style="shape=parallelogram;html=1;strokeWidth=2;perimeter=parallelogramPerimeter;whiteSpace=wrap;rounded=1;arcSize=12;size=0.23;" parent="1" vertex="1">
          <mxGeometry x="870" y="3850" width="260" height="60" as="geometry" />
        </mxCell>
        <mxCell id="pI9McHAt1SIaVRNVlYuP-75" style="edgeStyle=orthogonalEdgeStyle;rounded=0;orthogonalLoop=1;jettySize=auto;html=1;entryX=0.092;entryY=0.517;entryDx=0;entryDy=0;entryPerimeter=0;" parent="1" source="pI9McHAt1SIaVRNVlYuP-76" target="pI9McHAt1SIaVRNVlYuP-79" edge="1">
          <mxGeometry relative="1" as="geometry" />
        </mxCell>
        <mxCell id="pI9McHAt1SIaVRNVlYuP-76" value="DRV" style="shape=parallelogram;html=1;strokeWidth=2;perimeter=parallelogramPerimeter;whiteSpace=wrap;rounded=1;arcSize=12;size=0.23;" parent="1" vertex="1">
          <mxGeometry x="-800" y="3155" width="120" height="50" as="geometry" />
        </mxCell>
        <mxCell id="pI9McHAt1SIaVRNVlYuP-77" style="edgeStyle=orthogonalEdgeStyle;rounded=0;orthogonalLoop=1;jettySize=auto;html=1;entryX=0.5;entryY=0;entryDx=0;entryDy=0;" parent="1" source="pI9McHAt1SIaVRNVlYuP-79" target="pI9McHAt1SIaVRNVlYuP-81" edge="1">
          <mxGeometry relative="1" as="geometry" />
        </mxCell>
        <mxCell id="pI9McHAt1SIaVRNVlYuP-78" style="edgeStyle=orthogonalEdgeStyle;rounded=0;orthogonalLoop=1;jettySize=auto;html=1;entryX=1;entryY=1;entryDx=0;entryDy=0;entryPerimeter=0;" parent="1" source="pI9McHAt1SIaVRNVlYuP-79" target="pI9McHAt1SIaVRNVlYuP-83" edge="1">
          <mxGeometry relative="1" as="geometry" />
        </mxCell>
        <mxCell id="pI9McHAt1SIaVRNVlYuP-79" value="ActiveSensor::HostIntfDataBuffer" style="shape=parallelogram;html=1;strokeWidth=2;perimeter=parallelogramPerimeter;whiteSpace=wrap;rounded=1;arcSize=12;size=0.23;" parent="1" vertex="1">
          <mxGeometry x="-675" y="3150" width="260" height="60" as="geometry" />
        </mxCell>
        <mxCell id="pI9McHAt1SIaVRNVlYuP-80" style="edgeStyle=orthogonalEdgeStyle;rounded=0;orthogonalLoop=1;jettySize=auto;html=1;entryX=1;entryY=0;entryDx=0;entryDy=0;entryPerimeter=0;" parent="1" source="pI9McHAt1SIaVRNVlYuP-81" target="pI9McHAt1SIaVRNVlYuP-83" edge="1">
          <mxGeometry relative="1" as="geometry" />
        </mxCell>
        <mxCell id="pI9McHAt1SIaVRNVlYuP-81" value="mOutputQ" style="shape=parallelogram;html=1;strokeWidth=2;perimeter=parallelogramPerimeter;whiteSpace=wrap;rounded=1;arcSize=12;size=0.23;" parent="1" vertex="1">
          <mxGeometry x="-610" y="3250" width="130" height="60" as="geometry" />
        </mxCell>
        <mxCell id="pI9McHAt1SIaVRNVlYuP-82" style="edgeStyle=orthogonalEdgeStyle;rounded=0;orthogonalLoop=1;jettySize=auto;html=1;entryX=0;entryY=0.5;entryDx=0;entryDy=0;" parent="1" source="pI9McHAt1SIaVRNVlYuP-83" target="pI9McHAt1SIaVRNVlYuP-85" edge="1">
          <mxGeometry relative="1" as="geometry" />
        </mxCell>
        <mxCell id="pI9McHAt1SIaVRNVlYuP-83" value="" style="strokeWidth=2;html=1;shape=mxgraph.flowchart.annotation_2;align=left;labelPosition=right;pointerEvents=1;rotation=-180;" parent="1" vertex="1">
          <mxGeometry x="-385" y="3190" width="50" height="100" as="geometry" />
        </mxCell>
        <mxCell id="pI9McHAt1SIaVRNVlYuP-84" style="edgeStyle=orthogonalEdgeStyle;rounded=0;orthogonalLoop=1;jettySize=auto;html=1;entryX=0.5;entryY=0;entryDx=0;entryDy=0;" parent="1" source="pI9McHAt1SIaVRNVlYuP-85" target="pI9McHAt1SIaVRNVlYuP-88" edge="1">
          <mxGeometry relative="1" as="geometry" />
        </mxCell>
        <mxCell id="pI9McHAt1SIaVRNVlYuP-85" value="hostIntfPacketDequeue" style="rounded=1;whiteSpace=wrap;html=1;" parent="1" vertex="1">
          <mxGeometry x="-325" y="3210" width="160" height="60" as="geometry" />
        </mxCell>
        <mxCell id="pI9McHAt1SIaVRNVlYuP-93" style="edgeStyle=orthogonalEdgeStyle;rounded=0;orthogonalLoop=1;jettySize=auto;html=1;entryX=1;entryY=0.5;entryDx=0;entryDy=0;" parent="1" source="pI9McHAt1SIaVRNVlYuP-86" target="pI9McHAt1SIaVRNVlYuP-91" edge="1">
          <mxGeometry relative="1" as="geometry">
            <mxPoint x="-460" y="3420" as="targetPoint" />
          </mxGeometry>
        </mxCell>
        <mxCell id="pI9McHAt1SIaVRNVlYuP-86" value="mTxCurr" style="rounded=1;whiteSpace=wrap;html=1;" parent="1" vertex="1">
          <mxGeometry x="-325" y="3390" width="160" height="60" as="geometry" />
        </mxCell>
        <mxCell id="pI9McHAt1SIaVRNVlYuP-87" style="edgeStyle=orthogonalEdgeStyle;rounded=0;orthogonalLoop=1;jettySize=auto;html=1;entryX=0.5;entryY=0;entryDx=0;entryDy=0;" parent="1" source="pI9McHAt1SIaVRNVlYuP-88" target="pI9McHAt1SIaVRNVlYuP-86" edge="1">
          <mxGeometry relative="1" as="geometry" />
        </mxCell>
        <mxCell id="pI9McHAt1SIaVRNVlYuP-88" value="mTxNext" style="rounded=1;whiteSpace=wrap;html=1;" parent="1" vertex="1">
          <mxGeometry x="-325" y="3300" width="160" height="60" as="geometry" />
        </mxCell>
        <mxCell id="pI9McHAt1SIaVRNVlYuP-92" style="edgeStyle=orthogonalEdgeStyle;rounded=0;orthogonalLoop=1;jettySize=auto;html=1;entryX=0.5;entryY=0;entryDx=0;entryDy=0;" parent="1" source="pI9McHAt1SIaVRNVlYuP-91" target="T3vnycwtbMoYDpABDEtK-110" edge="1">
          <mxGeometry relative="1" as="geometry" />
        </mxCell>
        <mxCell id="pI9McHAt1SIaVRNVlYuP-91" value="readEventFast" style="rounded=1;whiteSpace=wrap;html=1;" parent="1" vertex="1">
          <mxGeometry x="-598.5" y="3390" width="120" height="60" as="geometry" />
        </mxCell>
        <mxCell id="pI9McHAt1SIaVRNVlYuP-95" style="edgeStyle=orthogonalEdgeStyle;rounded=0;orthogonalLoop=1;jettySize=auto;html=1;entryX=0;entryY=0.5;entryDx=0;entryDy=0;" parent="1" source="pI9McHAt1SIaVRNVlYuP-94" target="pI9McHAt1SIaVRNVlYuP-91" edge="1">
          <mxGeometry relative="1" as="geometry" />
        </mxCell>
        <mxCell id="pI9McHAt1SIaVRNVlYuP-94" value="R_ISR" style="ellipse;whiteSpace=wrap;html=1;" parent="1" vertex="1">
          <mxGeometry x="-810" y="3380" width="120" height="80" as="geometry" />
        </mxCell>
        <mxCell id="pI9McHAt1SIaVRNVlYuP-97" value="copy_XXX_Samples" style="ellipse;shape=cloud;whiteSpace=wrap;html=1;" parent="1" vertex="1">
          <mxGeometry x="-835" y="3260" width="170" height="80" as="geometry" />
        </mxCell>
        <mxCell id="pI9McHAt1SIaVRNVlYuP-104" value="shEnqueue" style="text;html=1;align=center;verticalAlign=middle;resizable=0;points=[];autosize=1;strokeColor=none;" parent="1" vertex="1">
          <mxGeometry x="-810" y="3240" width="80" height="20" as="geometry" />
        </mxCell>
        <mxCell id="pI9McHAt1SIaVRNVlYuP-112" value="" style="endArrow=none;dashed=1;html=1;entryX=0.4;entryY=0.1;entryDx=0;entryDy=0;entryPerimeter=0;" parent="1" target="pI9McHAt1SIaVRNVlYuP-97" edge="1">
          <mxGeometry width="50" height="50" relative="1" as="geometry">
            <mxPoint x="-760" y="3210" as="sourcePoint" />
            <mxPoint x="-220" y="3160" as="targetPoint" />
          </mxGeometry>
        </mxCell>
        <mxCell id="pI9McHAt1SIaVRNVlYuP-113" value="" style="endArrow=none;dashed=1;html=1;entryX=0.25;entryY=1;entryDx=0;entryDy=0;exitX=0.829;exitY=0.238;exitDx=0;exitDy=0;exitPerimeter=0;" parent="1" source="pI9McHAt1SIaVRNVlYuP-97" target="pI9McHAt1SIaVRNVlYuP-79" edge="1">
          <mxGeometry width="50" height="50" relative="1" as="geometry">
            <mxPoint x="-670" y="3280" as="sourcePoint" />
            <mxPoint x="-620" y="3230" as="targetPoint" />
          </mxGeometry>
        </mxCell>
        <mxCell id="pI9McHAt1SIaVRNVlYuP-115" value="fill max sample" style="edgeLabel;html=1;align=center;verticalAlign=middle;resizable=0;points=[];" parent="pI9McHAt1SIaVRNVlYuP-113" vertex="1" connectable="0">
          <mxGeometry x="0.1461" y="-5" relative="1" as="geometry">
            <mxPoint y="46" as="offset" />
          </mxGeometry>
        </mxCell>
        <mxCell id="pI9McHAt1SIaVRNVlYuP-114" value="" style="endArrow=none;dashed=1;html=1;entryX=0.108;entryY=0.4;entryDx=0;entryDy=0;entryPerimeter=0;exitX=0.918;exitY=0.525;exitDx=0;exitDy=0;exitPerimeter=0;" parent="1" source="pI9McHAt1SIaVRNVlYuP-97" target="pI9McHAt1SIaVRNVlYuP-81" edge="1">
          <mxGeometry width="50" height="50" relative="1" as="geometry">
            <mxPoint x="-650" y="3310" as="sourcePoint" />
            <mxPoint x="-600" y="3260" as="targetPoint" />
          </mxGeometry>
        </mxCell>
        <mxCell id="pI9McHAt1SIaVRNVlYuP-116" value="No meet max samples" style="text;html=1;align=center;verticalAlign=middle;resizable=0;points=[];autosize=1;strokeColor=none;" parent="1" vertex="1">
          <mxGeometry x="-705" y="3240" width="130" height="20" as="geometry" />
        </mxCell>
        <mxCell id="pI9McHAt1SIaVRNVlYuP-119" style="edgeStyle=orthogonalEdgeStyle;rounded=0;orthogonalLoop=1;jettySize=auto;html=1;entryX=0.5;entryY=0;entryDx=0;entryDy=0;" parent="1" source="pI9McHAt1SIaVRNVlYuP-117" target="pI9McHAt1SIaVRNVlYuP-118" edge="1">
          <mxGeometry relative="1" as="geometry" />
        </mxCell>
        <mxCell id="pI9McHAt1SIaVRNVlYuP-117" value="nanohubPrefetchTx" style="rounded=1;whiteSpace=wrap;html=1;" parent="1" vertex="1">
          <mxGeometry x="-325" y="3109.25" width="160" height="40.75" as="geometry" />
        </mxCell>
        <mxCell id="pI9McHAt1SIaVRNVlYuP-120" style="edgeStyle=orthogonalEdgeStyle;rounded=0;orthogonalLoop=1;jettySize=auto;html=1;entryX=0.5;entryY=0;entryDx=0;entryDy=0;" parent="1" source="pI9McHAt1SIaVRNVlYuP-118" target="pI9McHAt1SIaVRNVlYuP-85" edge="1">
          <mxGeometry relative="1" as="geometry" />
        </mxCell>
        <mxCell id="pI9McHAt1SIaVRNVlYuP-118" value="fillBuffer" style="rounded=1;whiteSpace=wrap;html=1;" parent="1" vertex="1">
          <mxGeometry x="-325" y="3165" width="160" height="30" as="geometry" />
        </mxCell>
        <mxCell id="a23rh28UasctOaA2FhJo-58" value="" style="rounded=1;whiteSpace=wrap;html=1;fillColor=#dae8fc;strokeColor=#6c8ebf;" parent="1" vertex="1">
          <mxGeometry x="-1020" y="4240" width="290" height="130" as="geometry" />
        </mxCell>
        <mxCell id="a23rh28UasctOaA2FhJo-60" value="SimpleQ&amp;nbsp;" style="text;strokeColor=none;fillColor=none;html=1;fontSize=24;fontStyle=1;verticalAlign=middle;align=center;" parent="1" vertex="1">
          <mxGeometry x="-1010" y="4240" width="100" height="40" as="geometry" />
        </mxCell>
        <mxCell id="a23rh28UasctOaA2FhJo-62" value="simpleQueueAlloc" style="rounded=1;whiteSpace=wrap;html=1;fillColor=#d5e8d4;strokeColor=#82b366;" parent="1" vertex="1">
          <mxGeometry x="-1000" y="4280" width="120" height="30" as="geometry" />
        </mxCell>
        <mxCell id="a23rh28UasctOaA2FhJo-63" value="simpleQueueDestroy" style="rounded=1;whiteSpace=wrap;html=1;fillColor=#d5e8d4;strokeColor=#82b366;" parent="1" vertex="1">
          <mxGeometry x="-870" y="4280" width="120" height="30" as="geometry" />
        </mxCell>
        <mxCell id="a23rh28UasctOaA2FhJo-64" value="simpleQueueEnqueue" style="rounded=1;whiteSpace=wrap;html=1;fillColor=#d5e8d4;strokeColor=#82b366;" parent="1" vertex="1">
          <mxGeometry x="-1000" y="4325" width="120" height="30" as="geometry" />
        </mxCell>
        <mxCell id="a23rh28UasctOaA2FhJo-65" value="simpleQueueDequeue" style="rounded=1;whiteSpace=wrap;html=1;fillColor=#d5e8d4;strokeColor=#82b366;" parent="1" vertex="1">
          <mxGeometry x="-870" y="4325" width="120" height="30" as="geometry" />
        </mxCell>
        <mxCell id="a23rh28UasctOaA2FhJo-66" value="" style="rounded=1;whiteSpace=wrap;html=1;fillColor=#dae8fc;strokeColor=#6c8ebf;" parent="1" vertex="1">
          <mxGeometry x="-665" y="4240" width="290" height="130" as="geometry" />
        </mxCell>
        <mxCell id="a23rh28UasctOaA2FhJo-67" value="EventQ" style="text;strokeColor=none;fillColor=none;html=1;fontSize=24;fontStyle=1;verticalAlign=middle;align=center;" parent="1" vertex="1">
          <mxGeometry x="-655" y="4240" width="100" height="40" as="geometry" />
        </mxCell>
        <mxCell id="a23rh28UasctOaA2FhJo-68" value="evtQueueAlloc" style="rounded=1;whiteSpace=wrap;html=1;fillColor=#d5e8d4;strokeColor=#82b366;" parent="1" vertex="1">
          <mxGeometry x="-645" y="4280" width="120" height="30" as="geometry" />
        </mxCell>
        <mxCell id="a23rh28UasctOaA2FhJo-69" value="evtQueueFree" style="rounded=1;whiteSpace=wrap;html=1;fillColor=#d5e8d4;strokeColor=#82b366;" parent="1" vertex="1">
          <mxGeometry x="-515" y="4280" width="120" height="30" as="geometry" />
        </mxCell>
        <mxCell id="a23rh28UasctOaA2FhJo-70" value="evtQueueEnqueue" style="rounded=1;whiteSpace=wrap;html=1;fillColor=#d5e8d4;strokeColor=#82b366;" parent="1" vertex="1">
          <mxGeometry x="-645" y="4325" width="120" height="30" as="geometry" />
        </mxCell>
        <mxCell id="a23rh28UasctOaA2FhJo-71" value="evtQueueDequeue" style="rounded=1;whiteSpace=wrap;html=1;fillColor=#d5e8d4;strokeColor=#82b366;" parent="1" vertex="1">
          <mxGeometry x="-515" y="4325" width="120" height="30" as="geometry" />
        </mxCell>
        <mxCell id="a23rh28UasctOaA2FhJo-72" value="" style="rounded=1;whiteSpace=wrap;html=1;fillColor=#dae8fc;strokeColor=#6c8ebf;" parent="1" vertex="1">
          <mxGeometry x="-1010" y="4410" width="290" height="130" as="geometry" />
        </mxCell>
        <mxCell id="a23rh28UasctOaA2FhJo-73" value="Heap" style="text;strokeColor=none;fillColor=none;html=1;fontSize=24;fontStyle=1;verticalAlign=middle;align=center;" parent="1" vertex="1">
          <mxGeometry x="-1000" y="4410" width="100" height="40" as="geometry" />
        </mxCell>
        <mxCell id="a23rh28UasctOaA2FhJo-74" value="heapInit" style="rounded=1;whiteSpace=wrap;html=1;fillColor=#d5e8d4;strokeColor=#82b366;" parent="1" vertex="1">
          <mxGeometry x="-920" y="4450" width="120" height="30" as="geometry" />
        </mxCell>
        <mxCell id="a23rh28UasctOaA2FhJo-76" value="heapAlloc" style="rounded=1;whiteSpace=wrap;html=1;fillColor=#d5e8d4;strokeColor=#82b366;" parent="1" vertex="1">
          <mxGeometry x="-990" y="4495" width="120" height="30" as="geometry" />
        </mxCell>
        <mxCell id="a23rh28UasctOaA2FhJo-77" value="heapFree" style="rounded=1;whiteSpace=wrap;html=1;fillColor=#d5e8d4;strokeColor=#82b366;" parent="1" vertex="1">
          <mxGeometry x="-860" y="4495" width="120" height="30" as="geometry" />
        </mxCell>
        <mxCell id="a23rh28UasctOaA2FhJo-78" value="" style="rounded=1;whiteSpace=wrap;html=1;fillColor=#dae8fc;strokeColor=#6c8ebf;" parent="1" vertex="1">
          <mxGeometry x="-665" y="4410" width="290" height="130" as="geometry" />
        </mxCell>
        <mxCell id="a23rh28UasctOaA2FhJo-83" value="" style="edgeStyle=orthogonalEdgeStyle;rounded=0;orthogonalLoop=1;jettySize=auto;html=1;" parent="1" source="a23rh28UasctOaA2FhJo-79" target="a23rh28UasctOaA2FhJo-80" edge="1">
          <mxGeometry relative="1" as="geometry" />
        </mxCell>
        <mxCell id="a23rh28UasctOaA2FhJo-79" value="Slab" style="text;strokeColor=none;fillColor=none;html=1;fontSize=24;fontStyle=1;verticalAlign=middle;align=center;" parent="1" vertex="1">
          <mxGeometry x="-655" y="4410" width="75" height="40" as="geometry" />
        </mxCell>
        <mxCell id="a23rh28UasctOaA2FhJo-80" value="slabAllocatorNew" style="rounded=1;whiteSpace=wrap;html=1;fillColor=#d5e8d4;strokeColor=#82b366;" parent="1" vertex="1">
          <mxGeometry x="-645" y="4450" width="120" height="30" as="geometry" />
        </mxCell>
        <mxCell id="a23rh28UasctOaA2FhJo-81" value="slabAllocatorAlloc" style="rounded=1;whiteSpace=wrap;html=1;fillColor=#d5e8d4;strokeColor=#82b366;" parent="1" vertex="1">
          <mxGeometry x="-645" y="4495" width="120" height="30" as="geometry" />
        </mxCell>
        <mxCell id="a23rh28UasctOaA2FhJo-82" value="slabAllocatorFree" style="rounded=1;whiteSpace=wrap;html=1;fillColor=#d5e8d4;strokeColor=#82b366;" parent="1" vertex="1">
          <mxGeometry x="-515" y="4495" width="120" height="30" as="geometry" />
        </mxCell>
        <mxCell id="a23rh28UasctOaA2FhJo-84" value="slabAllocatorDestroy" style="rounded=1;whiteSpace=wrap;html=1;fillColor=#d5e8d4;strokeColor=#82b366;" parent="1" vertex="1">
          <mxGeometry x="-515" y="4450" width="120" height="30" as="geometry" />
        </mxCell>
        <mxCell id="a23rh28UasctOaA2FhJo-85" value="" style="rounded=1;whiteSpace=wrap;html=1;fillColor=#dae8fc;strokeColor=#6c8ebf;" parent="1" vertex="1">
          <mxGeometry x="-1020" y="4600" width="250" height="80" as="geometry" />
        </mxCell>
        <mxCell id="a23rh28UasctOaA2FhJo-86" value="Cmd" style="text;strokeColor=none;fillColor=none;html=1;fontSize=24;fontStyle=1;verticalAlign=middle;align=center;" parent="1" vertex="1">
          <mxGeometry x="-1010" y="4600" width="90" height="40" as="geometry" />
        </mxCell>
        <mxCell id="a23rh28UasctOaA2FhJo-87" value="nanohubHalLegacyFindCommand" style="rounded=1;whiteSpace=wrap;html=1;fillColor=#d5e8d4;strokeColor=#82b366;" parent="1" vertex="1">
          <mxGeometry x="-990" y="4640" width="190" height="30" as="geometry" />
        </mxCell>
        <mxCell id="a23rh28UasctOaA2FhJo-91" value="" style="rounded=1;whiteSpace=wrap;html=1;fillColor=#dae8fc;strokeColor=#6c8ebf;" parent="1" vertex="1">
          <mxGeometry x="-655" y="4600" width="290" height="180" as="geometry" />
        </mxCell>
        <mxCell id="a23rh28UasctOaA2FhJo-92" value="" style="edgeStyle=orthogonalEdgeStyle;rounded=0;orthogonalLoop=1;jettySize=auto;html=1;" parent="1" target="a23rh28UasctOaA2FhJo-94" edge="1">
          <mxGeometry relative="1" as="geometry">
            <mxPoint x="-577.5" y="4680" as="sourcePoint" />
          </mxGeometry>
        </mxCell>
        <mxCell id="a23rh28UasctOaA2FhJo-93" value="I2C&amp;nbsp; Master" style="text;strokeColor=none;fillColor=none;html=1;fontSize=24;fontStyle=1;verticalAlign=middle;align=center;" parent="1" vertex="1">
          <mxGeometry x="-645" y="4600" width="135" height="40" as="geometry" />
        </mxCell>
        <mxCell id="a23rh28UasctOaA2FhJo-94" value="i2cMasterRequest" style="rounded=1;whiteSpace=wrap;html=1;fillColor=#d5e8d4;strokeColor=#82b366;" parent="1" vertex="1">
          <mxGeometry x="-635" y="4650" width="120" height="30" as="geometry" />
        </mxCell>
        <mxCell id="a23rh28UasctOaA2FhJo-95" value="i2cMasterTxRx" style="rounded=1;whiteSpace=wrap;html=1;fillColor=#d5e8d4;strokeColor=#82b366;" parent="1" vertex="1">
          <mxGeometry x="-570" y="4740" width="120" height="30" as="geometry" />
        </mxCell>
        <mxCell id="a23rh28UasctOaA2FhJo-96" value="i2cMasterRx" style="rounded=1;whiteSpace=wrap;html=1;fillColor=#d5e8d4;strokeColor=#82b366;" parent="1" vertex="1">
          <mxGeometry x="-505" y="4690" width="120" height="30" as="geometry" />
        </mxCell>
        <mxCell id="a23rh28UasctOaA2FhJo-97" value="i2cMasterRelease" style="rounded=1;whiteSpace=wrap;html=1;fillColor=#d5e8d4;strokeColor=#82b366;" parent="1" vertex="1">
          <mxGeometry x="-505" y="4650" width="120" height="30" as="geometry" />
        </mxCell>
        <mxCell id="a23rh28UasctOaA2FhJo-98" value="i2cMasterTx" style="rounded=1;whiteSpace=wrap;html=1;fillColor=#d5e8d4;strokeColor=#82b366;" parent="1" vertex="1">
          <mxGeometry x="-635" y="4690" width="120" height="30" as="geometry" />
        </mxCell>
        <mxCell id="a23rh28UasctOaA2FhJo-99" value="" style="edgeStyle=segmentEdgeStyle;endArrow=classic;html=1;rounded=0;entryX=0.5;entryY=0;entryDx=0;entryDy=0;exitX=0.5;exitY=1;exitDx=0;exitDy=0;" parent="1" source="a23rh28UasctOaA2FhJo-98" target="a23rh28UasctOaA2FhJo-95" edge="1">
          <mxGeometry width="50" height="50" relative="1" as="geometry">
            <mxPoint x="-680" y="4630" as="sourcePoint" />
            <mxPoint x="-630" y="4580" as="targetPoint" />
            <Array as="points">
              <mxPoint x="-575" y="4730" />
              <mxPoint x="-510" y="4730" />
            </Array>
          </mxGeometry>
        </mxCell>
        <mxCell id="a23rh28UasctOaA2FhJo-100" value="" style="edgeStyle=elbowEdgeStyle;elbow=vertical;endArrow=classic;html=1;rounded=0;exitX=0.5;exitY=1;exitDx=0;exitDy=0;entryX=0.5;entryY=0;entryDx=0;entryDy=0;" parent="1" source="a23rh28UasctOaA2FhJo-96" target="a23rh28UasctOaA2FhJo-95" edge="1">
          <mxGeometry width="50" height="50" relative="1" as="geometry">
            <mxPoint x="-680" y="4630" as="sourcePoint" />
            <mxPoint x="-510" y="4730" as="targetPoint" />
            <Array as="points">
              <mxPoint x="-480" y="4730" />
            </Array>
          </mxGeometry>
        </mxCell>
        <mxCell id="a23rh28UasctOaA2FhJo-101" value="" style="rounded=1;whiteSpace=wrap;html=1;fillColor=#dae8fc;strokeColor=#6c8ebf;" parent="1" vertex="1">
          <mxGeometry x="-1050" y="4710" width="290" height="170" as="geometry" />
        </mxCell>
        <mxCell id="a23rh28UasctOaA2FhJo-102" value="SPI Master" style="text;strokeColor=none;fillColor=none;html=1;fontSize=24;fontStyle=1;verticalAlign=middle;align=center;" parent="1" vertex="1">
          <mxGeometry x="-1039" y="4710" width="129" height="40" as="geometry" />
        </mxCell>
        <mxCell id="a23rh28UasctOaA2FhJo-109" value="" style="edgeStyle=orthogonalEdgeStyle;rounded=0;orthogonalLoop=1;jettySize=auto;html=1;" parent="1" source="a23rh28UasctOaA2FhJo-103" target="a23rh28UasctOaA2FhJo-107" edge="1">
          <mxGeometry relative="1" as="geometry" />
        </mxCell>
        <mxCell id="a23rh28UasctOaA2FhJo-103" value="spiMasterRequest" style="rounded=1;whiteSpace=wrap;html=1;fillColor=#d5e8d4;strokeColor=#82b366;" parent="1" vertex="1">
          <mxGeometry x="-1030" y="4750" width="120" height="30" as="geometry" />
        </mxCell>
        <mxCell id="a23rh28UasctOaA2FhJo-105" value="spiMasterRxTx" style="rounded=1;whiteSpace=wrap;html=1;fillColor=#d5e8d4;strokeColor=#82b366;" parent="1" vertex="1">
          <mxGeometry x="-965" y="4830" width="120" height="30" as="geometry" />
        </mxCell>
        <mxCell id="a23rh28UasctOaA2FhJo-110" value="" style="edgeStyle=orthogonalEdgeStyle;rounded=0;orthogonalLoop=1;jettySize=auto;html=1;" parent="1" source="a23rh28UasctOaA2FhJo-106" target="a23rh28UasctOaA2FhJo-108" edge="1">
          <mxGeometry relative="1" as="geometry" />
        </mxCell>
        <mxCell id="a23rh28UasctOaA2FhJo-106" value="spiMasterRelease" style="rounded=1;whiteSpace=wrap;html=1;fillColor=#d5e8d4;strokeColor=#82b366;" parent="1" vertex="1">
          <mxGeometry x="-900" y="4750" width="120" height="30" as="geometry" />
        </mxCell>
        <mxCell id="a23rh28UasctOaA2FhJo-107" value="spiRequest" style="rounded=1;whiteSpace=wrap;html=1;fillColor=#d5e8d4;strokeColor=#82b366;" parent="1" vertex="1">
          <mxGeometry x="-1030" y="4790" width="120" height="30" as="geometry" />
        </mxCell>
        <mxCell id="a23rh28UasctOaA2FhJo-108" value="spiRelease" style="rounded=1;whiteSpace=wrap;html=1;fillColor=#d5e8d4;strokeColor=#82b366;" parent="1" vertex="1">
          <mxGeometry x="-900" y="4790" width="120" height="30" as="geometry" />
        </mxCell>
        <mxCell id="a23rh28UasctOaA2FhJo-111" value="" style="rounded=0;whiteSpace=wrap;html=1;fillColor=#dae8fc;strokeColor=#6c8ebf;" parent="1" vertex="1">
          <mxGeometry x="-950" y="4960" width="310" height="225" as="geometry" />
        </mxCell>
        <mxCell id="a23rh28UasctOaA2FhJo-112" value="shInit" style="strokeWidth=2;html=1;shape=mxgraph.flowchart.terminator;whiteSpace=wrap;fillColor=#d5e8d4;strokeColor=#82b366;" parent="1" vertex="1">
          <mxGeometry x="-525" y="5020" width="65" height="30" as="geometry" />
        </mxCell>
        <mxCell id="a23rh28UasctOaA2FhJo-113" value="platLogInit" style="strokeWidth=2;html=1;shape=mxgraph.flowchart.terminator;whiteSpace=wrap;fillColor=#d5e8d4;strokeColor=#82b366;" parent="1" vertex="1">
          <mxGeometry x="-525" y="5060" width="65" height="30" as="geometry" />
        </mxCell>
        <mxCell id="a23rh28UasctOaA2FhJo-114" value="timInit" style="strokeWidth=2;html=1;shape=mxgraph.flowchart.terminator;whiteSpace=wrap;fillColor=#d5e8d4;strokeColor=#82b366;" parent="1" vertex="1">
          <mxGeometry x="-525" y="5100" width="65" height="30" as="geometry" />
        </mxCell>
        <mxCell id="a23rh28UasctOaA2FhJo-115" value="sensorsInit" style="strokeWidth=2;html=1;shape=mxgraph.flowchart.terminator;whiteSpace=wrap;fillColor=#d5e8d4;strokeColor=#82b366;" parent="1" vertex="1">
          <mxGeometry x="-525" y="5140" width="65" height="30" as="geometry" />
        </mxCell>
        <mxCell id="a23rh28UasctOaA2FhJo-117" value="apIntInit" style="strokeWidth=2;html=1;shape=mxgraph.flowchart.terminator;whiteSpace=wrap;fillColor=#d5e8d4;strokeColor=#82b366;" parent="1" vertex="1">
          <mxGeometry x="-370" y="5020" width="65" height="30" as="geometry" />
        </mxCell>
        <mxCell id="a23rh28UasctOaA2FhJo-118" value="shStartTasks" style="strokeWidth=2;html=1;shape=mxgraph.flowchart.terminator;whiteSpace=wrap;fillColor=#d5e8d4;strokeColor=#82b366;" parent="1" vertex="1">
          <mxGeometry x="-370" y="5070" width="80" height="30" as="geometry" />
        </mxCell>
        <mxCell id="a23rh28UasctOaA2FhJo-119" value="shMainDequeueLoop" style="strokeWidth=2;html=1;shape=mxgraph.flowchart.terminator;whiteSpace=wrap;fillColor=#d5e8d4;strokeColor=#82b366;" parent="1" vertex="1">
          <mxGeometry x="-370" y="5130" width="150" height="30" as="geometry" />
        </mxCell>
        <mxCell id="a23rh28UasctOaA2FhJo-121" value="" style="verticalLabelPosition=bottom;verticalAlign=top;html=1;shape=mxgraph.basic.three_corner_round_rect;dx=6;" parent="1" vertex="1">
          <mxGeometry x="-700" y="4750" width="100" height="60" as="geometry" />
        </mxCell>
        <mxCell id="a23rh28UasctOaA2FhJo-123" value="heapInit" style="rounded=1;whiteSpace=wrap;html=1;fillColor=#d5e8d4;strokeColor=#82b366;" parent="1" vertex="1">
          <mxGeometry x="-932.5" y="5000" width="75" height="30" as="geometry" />
        </mxCell>
        <mxCell id="a23rh28UasctOaA2FhJo-124" value="platInitialize" style="rounded=1;whiteSpace=wrap;html=1;fillColor=#d5e8d4;strokeColor=#82b366;" parent="1" vertex="1">
          <mxGeometry x="-932.5" y="5040" width="75" height="30" as="geometry" />
        </mxCell>
        <mxCell id="a23rh28UasctOaA2FhJo-125" value="platLogInit" style="rounded=1;whiteSpace=wrap;html=1;fillColor=#d5e8d4;strokeColor=#82b366;" parent="1" vertex="1">
          <mxGeometry x="-932.5" y="5080" width="75" height="30" as="geometry" />
        </mxCell>
        <mxCell id="a23rh28UasctOaA2FhJo-142" style="edgeStyle=orthogonalEdgeStyle;rounded=0;orthogonalLoop=1;jettySize=auto;html=1;" parent="1" source="a23rh28UasctOaA2FhJo-126" target="a23rh28UasctOaA2FhJo-128" edge="1">
          <mxGeometry relative="1" as="geometry">
            <Array as="points">
              <mxPoint x="-830" y="5135" />
              <mxPoint x="-830" y="5015" />
            </Array>
          </mxGeometry>
        </mxCell>
        <mxCell id="a23rh28UasctOaA2FhJo-126" value="timInit" style="rounded=1;whiteSpace=wrap;html=1;fillColor=#d5e8d4;strokeColor=#82b366;" parent="1" vertex="1">
          <mxGeometry x="-932.5" y="5120" width="75" height="30" as="geometry" />
        </mxCell>
        <mxCell id="a23rh28UasctOaA2FhJo-128" value="sensorsInit" style="rounded=1;whiteSpace=wrap;html=1;fillColor=#d5e8d4;strokeColor=#82b366;" parent="1" vertex="1">
          <mxGeometry x="-795" y="5000" width="75" height="30" as="geometry" />
        </mxCell>
        <mxCell id="a23rh28UasctOaA2FhJo-129" value="apIntInit" style="rounded=1;whiteSpace=wrap;html=1;fillColor=#d5e8d4;strokeColor=#82b366;" parent="1" vertex="1">
          <mxGeometry x="-795" y="5040" width="75" height="30" as="geometry" />
        </mxCell>
        <mxCell id="a23rh28UasctOaA2FhJo-130" value="shStartTasks" style="rounded=1;whiteSpace=wrap;html=1;fillColor=#d5e8d4;strokeColor=#82b366;" parent="1" vertex="1">
          <mxGeometry x="-795" y="5080" width="75" height="30" as="geometry" />
        </mxCell>
        <mxCell id="a23rh28UasctOaA2FhJo-131" value="shMainDequeueLoop" style="rounded=1;whiteSpace=wrap;html=1;fillColor=#d5e8d4;strokeColor=#82b366;" parent="1" vertex="1">
          <mxGeometry x="-815" y="5130" width="115" height="30" as="geometry" />
        </mxCell>
        <mxCell id="a23rh28UasctOaA2FhJo-135" value="" style="curved=1;endArrow=classic;html=1;rounded=0;entryX=0.5;entryY=1;entryDx=0;entryDy=0;exitX=1;exitY=0.5;exitDx=0;exitDy=0;" parent="1" source="a23rh28UasctOaA2FhJo-131" target="a23rh28UasctOaA2FhJo-131" edge="1">
          <mxGeometry width="50" height="50" relative="1" as="geometry">
            <mxPoint x="-680" y="5140" as="sourcePoint" />
            <mxPoint x="-630" y="5090" as="targetPoint" />
            <Array as="points">
              <mxPoint x="-630" y="5140" />
              <mxPoint x="-670" y="5180" />
            </Array>
          </mxGeometry>
        </mxCell>
        <mxCell id="a23rh28UasctOaA2FhJo-138" value="" style="endArrow=classic;html=1;rounded=0;exitX=0.5;exitY=1;exitDx=0;exitDy=0;" parent="1" source="a23rh28UasctOaA2FhJo-123" target="a23rh28UasctOaA2FhJo-124" edge="1">
          <mxGeometry width="50" height="50" relative="1" as="geometry">
            <mxPoint x="-680" y="5140" as="sourcePoint" />
            <mxPoint x="-630" y="5090" as="targetPoint" />
          </mxGeometry>
        </mxCell>
        <mxCell id="a23rh28UasctOaA2FhJo-140" value="" style="endArrow=classic;html=1;rounded=0;entryX=0.5;entryY=0;entryDx=0;entryDy=0;exitX=0.5;exitY=1;exitDx=0;exitDy=0;" parent="1" source="a23rh28UasctOaA2FhJo-124" target="a23rh28UasctOaA2FhJo-125" edge="1">
          <mxGeometry width="50" height="50" relative="1" as="geometry">
            <mxPoint x="-680" y="5140" as="sourcePoint" />
            <mxPoint x="-630" y="5090" as="targetPoint" />
          </mxGeometry>
        </mxCell>
        <mxCell id="a23rh28UasctOaA2FhJo-141" value="" style="endArrow=classic;html=1;rounded=0;exitX=0.5;exitY=1;exitDx=0;exitDy=0;entryX=0.5;entryY=0;entryDx=0;entryDy=0;" parent="1" source="a23rh28UasctOaA2FhJo-125" target="a23rh28UasctOaA2FhJo-126" edge="1">
          <mxGeometry width="50" height="50" relative="1" as="geometry">
            <mxPoint x="-680" y="5140" as="sourcePoint" />
            <mxPoint x="-630" y="5090" as="targetPoint" />
          </mxGeometry>
        </mxCell>
        <mxCell id="a23rh28UasctOaA2FhJo-144" value="" style="endArrow=classic;html=1;rounded=0;" parent="1" source="a23rh28UasctOaA2FhJo-128" target="a23rh28UasctOaA2FhJo-129" edge="1">
          <mxGeometry width="50" height="50" relative="1" as="geometry">
            <mxPoint x="-680" y="5140" as="sourcePoint" />
            <mxPoint x="-630" y="5090" as="targetPoint" />
          </mxGeometry>
        </mxCell>
        <mxCell id="a23rh28UasctOaA2FhJo-145" value="" style="endArrow=classic;html=1;rounded=0;exitX=0.5;exitY=1;exitDx=0;exitDy=0;" parent="1" source="a23rh28UasctOaA2FhJo-129" target="a23rh28UasctOaA2FhJo-130" edge="1">
          <mxGeometry width="50" height="50" relative="1" as="geometry">
            <mxPoint x="-680" y="5140" as="sourcePoint" />
            <mxPoint x="-630" y="5090" as="targetPoint" />
          </mxGeometry>
        </mxCell>
        <mxCell id="a23rh28UasctOaA2FhJo-146" value="" style="endArrow=classic;html=1;rounded=0;exitX=0.5;exitY=1;exitDx=0;exitDy=0;entryX=0.5;entryY=0;entryDx=0;entryDy=0;" parent="1" source="a23rh28UasctOaA2FhJo-130" target="a23rh28UasctOaA2FhJo-131" edge="1">
          <mxGeometry width="50" height="50" relative="1" as="geometry">
            <mxPoint x="-680" y="5140" as="sourcePoint" />
            <mxPoint x="-630" y="5090" as="targetPoint" />
          </mxGeometry>
        </mxCell>
        <mxCell id="a23rh28UasctOaA2FhJo-147" value="DSP Init Flow" style="text;strokeColor=none;fillColor=none;html=1;fontSize=24;fontStyle=1;verticalAlign=middle;align=center;" parent="1" vertex="1">
          <mxGeometry x="-875" y="4960" width="160" height="40" as="geometry" />
        </mxCell>
        <mxCell id="a23rh28UasctOaA2FhJo-148" value="" style="line;strokeWidth=4;direction=south;html=1;perimeter=backbonePerimeter;points=[];outlineConnect=0;" parent="1" vertex="1">
          <mxGeometry x="-730" y="5480" width="10" height="160" as="geometry" />
        </mxCell>
        <mxCell id="a23rh28UasctOaA2FhJo-149" value="AP" style="text;strokeColor=none;fillColor=none;html=1;fontSize=24;fontStyle=1;verticalAlign=middle;align=center;" parent="1" vertex="1">
          <mxGeometry x="-800" y="5480" width="100" height="40" as="geometry" />
        </mxCell>
        <mxCell id="a23rh28UasctOaA2FhJo-150" value="" style="line;strokeWidth=4;direction=south;html=1;perimeter=backbonePerimeter;points=[];outlineConnect=0;" parent="1" vertex="1">
          <mxGeometry x="-645" y="5480" width="10" height="160" as="geometry" />
        </mxCell>
        <mxCell id="a23rh28UasctOaA2FhJo-154" value="" style="edgeStyle=elbowEdgeStyle;elbow=horizontal;endArrow=classic;html=1;rounded=0;entryX=0.4;entryY=0.237;entryDx=0;entryDy=0;entryPerimeter=0;" parent="1" target="a23rh28UasctOaA2FhJo-150" edge="1">
          <mxGeometry width="50" height="50" relative="1" as="geometry">
            <mxPoint x="-640" y="5510" as="sourcePoint" />
            <mxPoint x="-630" y="5460" as="targetPoint" />
            <Array as="points">
              <mxPoint x="-620" y="5520" />
            </Array>
          </mxGeometry>
        </mxCell>
        <mxCell id="a23rh28UasctOaA2FhJo-155" value="" style="endArrow=classic;html=1;rounded=0;" parent="1" source="a23rh28UasctOaA2FhJo-148" edge="1">
          <mxGeometry relative="1" as="geometry">
            <mxPoint x="-710" y="5510" as="sourcePoint" />
            <mxPoint x="-640" y="5510" as="targetPoint" />
          </mxGeometry>
        </mxCell>
        <mxCell id="a23rh28UasctOaA2FhJo-156" value="Req" style="edgeLabel;resizable=0;html=1;align=center;verticalAlign=middle;" parent="a23rh28UasctOaA2FhJo-155" connectable="0" vertex="1">
          <mxGeometry relative="1" as="geometry">
            <mxPoint y="-10" as="offset" />
          </mxGeometry>
        </mxCell>
        <mxCell id="a23rh28UasctOaA2FhJo-159" value="&lt;font style=&quot;font-size: 15px; font-weight: normal;&quot;&gt;find cmd&lt;/font&gt;" style="text;strokeColor=none;fillColor=none;html=1;fontSize=24;fontStyle=1;verticalAlign=middle;align=left;" parent="1" vertex="1">
          <mxGeometry x="-640" y="5510" width="60" height="30" as="geometry" />
        </mxCell>
        <mxCell id="a23rh28UasctOaA2FhJo-162" value="" style="line;strokeWidth=2;direction=south;html=1;fontSize=15;" parent="1" vertex="1">
          <mxGeometry x="-525" y="5480" width="10" height="160" as="geometry" />
        </mxCell>
        <mxCell id="a23rh28UasctOaA2FhJo-163" value="" style="endArrow=classic;html=1;rounded=0;fontSize=15;entryX=0.502;entryY=0.675;entryDx=0;entryDy=0;entryPerimeter=0;" parent="1" target="a23rh28UasctOaA2FhJo-162" edge="1">
          <mxGeometry relative="1" as="geometry">
            <mxPoint x="-640" y="5559.69" as="sourcePoint" />
            <mxPoint x="-540" y="5559.69" as="targetPoint" />
            <Array as="points">
              <mxPoint x="-580" y="5560" />
            </Array>
          </mxGeometry>
        </mxCell>
        <mxCell id="a23rh28UasctOaA2FhJo-164" value="handle cmd" style="edgeLabel;resizable=0;html=1;align=center;verticalAlign=middle;fontSize=15;" parent="a23rh28UasctOaA2FhJo-163" connectable="0" vertex="1">
          <mxGeometry relative="1" as="geometry" />
        </mxCell>
        <mxCell id="a23rh28UasctOaA2FhJo-166" value="" style="endArrow=classic;html=1;rounded=0;fontSize=15;exitX=0.75;exitY=0.5;exitDx=0;exitDy=0;exitPerimeter=0;" parent="1" source="a23rh28UasctOaA2FhJo-162" edge="1">
          <mxGeometry relative="1" as="geometry">
            <mxPoint x="-700" y="5490" as="sourcePoint" />
            <mxPoint x="-720" y="5600" as="targetPoint" />
            <Array as="points">
              <mxPoint x="-580" y="5600" />
            </Array>
          </mxGeometry>
        </mxCell>
        <mxCell id="a23rh28UasctOaA2FhJo-167" value="ack" style="edgeLabel;resizable=0;html=1;align=center;verticalAlign=middle;fontSize=15;" parent="a23rh28UasctOaA2FhJo-166" connectable="0" vertex="1">
          <mxGeometry relative="1" as="geometry" />
        </mxCell>
        <mxCell id="a23rh28UasctOaA2FhJo-168" value="" style="edgeStyle=elbowEdgeStyle;elbow=horizontal;endArrow=classic;html=1;rounded=0;" parent="1" edge="1">
          <mxGeometry width="50" height="50" relative="1" as="geometry">
            <mxPoint x="-525" y="5560" as="sourcePoint" />
            <mxPoint x="-520" y="5600" as="targetPoint" />
            <Array as="points">
              <mxPoint x="-505" y="5570" />
            </Array>
          </mxGeometry>
        </mxCell>
        <mxCell id="a23rh28UasctOaA2FhJo-169" value="DSP" style="text;strokeColor=none;fillColor=none;html=1;fontSize=24;fontStyle=1;verticalAlign=middle;align=center;" parent="1" vertex="1">
          <mxGeometry x="-627.5" y="5480" width="100" height="40" as="geometry" />
        </mxCell>
        <mxCell id="a23rh28UasctOaA2FhJo-176" value="AP" style="shape=umlLifeline;perimeter=lifelinePerimeter;whiteSpace=wrap;html=1;container=1;collapsible=0;recursiveResize=0;outlineConnect=0;fontSize=15;fillColor=#ffe6cc;strokeColor=#d79b00;" parent="1" vertex="1">
          <mxGeometry x="-770" y="5660" width="100" height="300" as="geometry" />
        </mxCell>
        <mxCell id="a23rh28UasctOaA2FhJo-177" value="DSP" style="shape=umlLifeline;perimeter=lifelinePerimeter;whiteSpace=wrap;html=1;container=1;collapsible=0;recursiveResize=0;outlineConnect=0;fontSize=15;fillColor=#fff2cc;strokeColor=#d6b656;" parent="1" vertex="1">
          <mxGeometry x="-610" y="5660" width="100" height="300" as="geometry" />
        </mxCell>
        <mxCell id="a23rh28UasctOaA2FhJo-189" value="" style="html=1;points=[];perimeter=orthogonalPerimeter;fontSize=10;" parent="a23rh28UasctOaA2FhJo-177" vertex="1">
          <mxGeometry x="45" y="180" width="10" height="40" as="geometry" />
        </mxCell>
        <mxCell id="a23rh28UasctOaA2FhJo-190" value="find task to handle event&lt;br&gt;&lt;span style=&quot;text-align: center;&quot;&gt;EVT_APP_TO_HOST&lt;/span&gt;&lt;br&gt;&amp;nbsp;" style="edgeStyle=orthogonalEdgeStyle;html=1;align=left;spacingLeft=2;endArrow=block;rounded=0;entryX=1;entryY=0;fontSize=10;" parent="a23rh28UasctOaA2FhJo-177" target="a23rh28UasctOaA2FhJo-189" edge="1">
          <mxGeometry relative="1" as="geometry">
            <mxPoint x="52.5" y="140" as="sourcePoint" />
            <Array as="points">
              <mxPoint x="83" y="140" />
              <mxPoint x="83" y="180" />
              <mxPoint x="58" y="180" />
            </Array>
          </mxGeometry>
        </mxCell>
        <mxCell id="a23rh28UasctOaA2FhJo-178" value="calibrate req" style="endArrow=open;endSize=12;dashed=1;html=1;rounded=0;fontSize=15;" parent="1" edge="1">
          <mxGeometry width="160" relative="1" as="geometry">
            <mxPoint x="-720" y="5720" as="sourcePoint" />
            <mxPoint x="-560" y="5720" as="targetPoint" />
          </mxGeometry>
        </mxCell>
        <mxCell id="a23rh28UasctOaA2FhJo-183" value="" style="shape=umlLifeline;participant=umlActor;perimeter=lifelinePerimeter;whiteSpace=wrap;html=1;container=1;collapsible=0;recursiveResize=0;verticalAlign=top;spacingTop=36;outlineConnect=0;fontSize=10;" parent="1" vertex="1">
          <mxGeometry x="-405" y="5660" width="20" height="300" as="geometry" />
        </mxCell>
        <mxCell id="a23rh28UasctOaA2FhJo-179" value="" style="html=1;points=[];perimeter=orthogonalPerimeter;fontSize=15;" parent="a23rh28UasctOaA2FhJo-183" vertex="1">
          <mxGeometry y="89" width="10" height="40" as="geometry" />
        </mxCell>
        <mxCell id="a23rh28UasctOaA2FhJo-180" value="do calibrate" style="edgeStyle=orthogonalEdgeStyle;html=1;align=left;spacingLeft=2;endArrow=block;rounded=0;entryX=1;entryY=0;fontSize=15;" parent="a23rh28UasctOaA2FhJo-183" target="a23rh28UasctOaA2FhJo-179" edge="1">
          <mxGeometry relative="1" as="geometry">
            <mxPoint x="9.875000000000227" y="69" as="sourcePoint" />
            <Array as="points">
              <mxPoint x="35" y="69" />
              <mxPoint x="35" y="89" />
              <mxPoint x="20" y="89" />
            </Array>
          </mxGeometry>
        </mxCell>
        <mxCell id="a23rh28UasctOaA2FhJo-186" value="SensorOps-&amp;gt;&lt;br&gt;sensorCalibratel" style="endArrow=open;endSize=12;dashed=1;html=1;rounded=0;fontSize=10;" parent="1" source="a23rh28UasctOaA2FhJo-177" edge="1">
          <mxGeometry width="160" relative="1" as="geometry">
            <mxPoint x="-555" y="5730" as="sourcePoint" />
            <mxPoint x="-395" y="5730" as="targetPoint" />
            <Array as="points">
              <mxPoint x="-480" y="5730" />
            </Array>
          </mxGeometry>
        </mxCell>
        <mxCell id="a23rh28UasctOaA2FhJo-188" value="EVT_APP_TO_HOST&lt;br&gt;with Calidata" style="html=1;verticalAlign=bottom;endArrow=open;dashed=1;endSize=8;rounded=0;fontSize=10;" parent="1" target="a23rh28UasctOaA2FhJo-177" edge="1">
          <mxGeometry relative="1" as="geometry">
            <mxPoint x="-395" y="5800" as="sourcePoint" />
            <mxPoint x="-475" y="5800" as="targetPoint" />
          </mxGeometry>
        </mxCell>
        <mxCell id="a23rh28UasctOaA2FhJo-191" value="response" style="html=1;verticalAlign=bottom;endArrow=open;dashed=1;endSize=8;rounded=0;fontSize=10;entryX=0.489;entryY=0.742;entryDx=0;entryDy=0;entryPerimeter=0;" parent="1" source="a23rh28UasctOaA2FhJo-177" target="a23rh28UasctOaA2FhJo-176" edge="1">
          <mxGeometry relative="1" as="geometry">
            <mxPoint x="-610" y="5830" as="sourcePoint" />
            <mxPoint x="-640" y="5880" as="targetPoint" />
          </mxGeometry>
        </mxCell>
        <mxCell id="a23rh28UasctOaA2FhJo-225" value="NanohubPacket" style="swimlane;childLayout=stackLayout;horizontal=1;startSize=30;horizontalStack=0;rounded=1;fontSize=14;fontStyle=0;strokeWidth=2;resizeParent=0;resizeLast=1;shadow=0;dashed=0;align=center;" parent="1" vertex="1">
          <mxGeometry x="-985" y="6000" width="160" height="120" as="geometry" />
        </mxCell>
        <mxCell id="a23rh28UasctOaA2FhJo-226" value="    uint8_t sync;&#xa;    __le32 seq;&#xa;    __le32 reason;&#xa;    uint8_t len;&#xa;    uint8_t data[0];" style="align=left;strokeColor=none;fillColor=none;spacingLeft=4;fontSize=12;verticalAlign=top;resizable=0;rotatable=0;part=1;" parent="a23rh28UasctOaA2FhJo-225" vertex="1">
          <mxGeometry y="30" width="160" height="90" as="geometry" />
        </mxCell>
        <mxCell id="a23rh28UasctOaA2FhJo-227" value="HostMsgHdr(EVT_APP_FROM_HOST)" style="swimlane;childLayout=stackLayout;horizontal=1;startSize=30;horizontalStack=0;rounded=1;fontSize=14;fontStyle=0;strokeWidth=2;resizeParent=0;resizeLast=1;shadow=0;dashed=0;align=center;" parent="1" vertex="1">
          <mxGeometry x="-780" y="6090" width="270" height="80" as="geometry" />
        </mxCell>
        <mxCell id="a23rh28UasctOaA2FhJo-228" value="    uint32_t eventId;&#xa;    uint64_t appId;&#xa;    uint8_t len;" style="align=left;strokeColor=none;fillColor=none;spacingLeft=4;fontSize=12;verticalAlign=top;resizable=0;rotatable=0;part=1;" parent="a23rh28UasctOaA2FhJo-227" vertex="1">
          <mxGeometry y="30" width="270" height="50" as="geometry" />
        </mxCell>
        <mxCell id="a23rh28UasctOaA2FhJo-229" value="NanohubWriteEventRequest" style="swimlane;childLayout=stackLayout;horizontal=1;startSize=30;horizontalStack=0;rounded=1;fontSize=14;fontStyle=0;strokeWidth=2;resizeParent=0;resizeLast=1;shadow=0;dashed=0;align=center;" parent="1" vertex="1">
          <mxGeometry x="-780" y="6000" width="410" height="80" as="geometry" />
        </mxCell>
        <mxCell id="a23rh28UasctOaA2FhJo-230" value="    __le32 evtType;&#xa;    uint8_t evtData[NANOHUB_PACKET_PAYLOAD_MAX - sizeof(__le32)];" style="align=left;strokeColor=none;fillColor=none;spacingLeft=4;fontSize=12;verticalAlign=top;resizable=0;rotatable=0;part=1;" parent="a23rh28UasctOaA2FhJo-229" vertex="1">
          <mxGeometry y="30" width="410" height="50" as="geometry" />
        </mxCell>
        <mxCell id="a23rh28UasctOaA2FhJo-231" value="writeEvent" style="rounded=1;fontSize=10;shadow=1;" parent="1" vertex="1">
          <mxGeometry x="-1059.5" y="6210" width="85" height="30" as="geometry" />
        </mxCell>
        <mxCell id="a23rh28UasctOaA2FhJo-232" value="&lt;div style=&quot;color: rgb(212, 212, 212); background-color: rgb(30, 30, 30); font-family: Consolas, &amp;quot;Courier New&amp;quot;, monospace; font-size: 14px; line-height: 19px;&quot;&gt;&lt;div style=&quot;line-height: 19px;&quot;&gt;&lt;span style=&quot;color: #dcdcaa;&quot;&gt;forwardPacket&lt;/span&gt;&lt;/div&gt;&lt;/div&gt;" style="rounded=1;whiteSpace=wrap;html=1;fontSize=10;" parent="1" vertex="1">
          <mxGeometry x="-1059.5" y="6250" width="110" height="30" as="geometry" />
        </mxCell>
        <mxCell id="a23rh28UasctOaA2FhJo-233" value="&lt;div style=&quot;color: rgb(212, 212, 212); background-color: rgb(30, 30, 30); font-family: Consolas, &amp;quot;Courier New&amp;quot;, monospace; font-size: 14px; line-height: 19px;&quot;&gt;&lt;div style=&quot;line-height: 19px;&quot;&gt;&lt;div style=&quot;line-height: 19px;&quot;&gt;&lt;span style=&quot;color: #dcdcaa;&quot;&gt;shEnqueuePrivateEvt/&lt;/span&gt;&lt;/div&gt;&lt;div style=&quot;line-height: 19px;&quot;&gt;&lt;div style=&quot;line-height: 19px;&quot;&gt;&lt;span style=&quot;color: #dcdcaa;&quot;&gt;shEnqueueEvtOrFree&lt;/span&gt;&lt;/div&gt;&lt;/div&gt;&lt;/div&gt;&lt;/div&gt;" style="rounded=1;whiteSpace=wrap;html=1;fontSize=10;" parent="1" vertex="1">
          <mxGeometry x="-1059.5" y="6290" width="170" height="50" as="geometry" />
        </mxCell>
        <mxCell id="a23rh28UasctOaA2FhJo-234" value="HostMsgHdrChre(EVT_APP_FROM_HOST_CHRE)" style="swimlane;childLayout=stackLayout;horizontal=1;startSize=30;horizontalStack=0;rounded=1;fontSize=14;fontStyle=0;strokeWidth=2;resizeParent=0;resizeLast=1;shadow=0;dashed=0;align=center;" parent="1" vertex="1">
          <mxGeometry x="-780" y="6180" width="345" height="110" as="geometry" />
        </mxCell>
        <mxCell id="a23rh28UasctOaA2FhJo-235" value="   uint32_t eventId;&#xa;    uint64_t appId;&#xa;    uint8_t len;&#xa;    uint32_t appEventId;&#xa;    uint16_t endpoint;" style="align=left;strokeColor=none;fillColor=none;spacingLeft=4;fontSize=12;verticalAlign=top;resizable=0;rotatable=0;part=1;" parent="a23rh28UasctOaA2FhJo-234" vertex="1">
          <mxGeometry y="30" width="345" height="80" as="geometry" />
        </mxCell>
        <mxCell id="a23rh28UasctOaA2FhJo-238" value="hostIntfFindHandler" style="rounded=1;labelBackgroundColor=none;fontSize=10;fontColor=#000000;strokeColor=#000000;fillColor=#FFFFFF;gradientColor=none;" parent="1" vertex="1">
          <mxGeometry x="-319" y="6345" width="120" height="30" as="geometry" />
        </mxCell>
        <mxCell id="a23rh28UasctOaA2FhJo-239" value="nanohubFindCommand" style="rounded=1;labelBackgroundColor=none;fontSize=10;fontColor=#000000;strokeColor=#000000;fillColor=#FFFFFF;gradientColor=none;" parent="1" vertex="1">
          <mxGeometry x="-740" y="6390" width="120" height="30" as="geometry" />
        </mxCell>
        <mxCell id="a23rh28UasctOaA2FhJo-240" value="nanohubFindCommand" style="rounded=1;labelBackgroundColor=none;fontSize=10;fontColor=#000000;strokeColor=#000000;fillColor=#FFFFFF;gradientColor=none;" parent="1" vertex="1">
          <mxGeometry x="-740" y="6450" width="120" height="30" as="geometry" />
        </mxCell>
        <mxCell id="jraqnc70_kOx0N8XIIZB-55" value="" style="ellipse;html=1;shape=startState;fillColor=#000000;strokeColor=#ff0000;" vertex="1" parent="1">
          <mxGeometry x="-525" y="6380" width="30" height="30" as="geometry" />
        </mxCell>
        <mxCell id="jraqnc70_kOx0N8XIIZB-56" value="" style="edgeStyle=orthogonalEdgeStyle;html=1;verticalAlign=bottom;endArrow=open;endSize=8;strokeColor=#ff0000;rounded=0;" edge="1" source="jraqnc70_kOx0N8XIIZB-55" parent="1">
          <mxGeometry relative="1" as="geometry">
            <mxPoint x="-510" y="6470" as="targetPoint" />
          </mxGeometry>
        </mxCell>
        <mxCell id="jraqnc70_kOx0N8XIIZB-57" value="&lt;span style=&quot;font-size: 14px;&quot;&gt;AP&lt;/span&gt;" style="rounded=1;whiteSpace=wrap;html=1;fillColor=#d5e8d4;strokeColor=#82b366;" vertex="1" parent="1">
          <mxGeometry x="-944.5" y="6800" width="120" height="60" as="geometry" />
        </mxCell>
        <mxCell id="jraqnc70_kOx0N8XIIZB-60" value="DSP" style="rounded=1;whiteSpace=wrap;html=1;fillColor=#e1d5e7;strokeColor=#9673a6;" vertex="1" parent="1">
          <mxGeometry x="-944.5" y="6930" width="120" height="60" as="geometry" />
        </mxCell>
        <mxCell id="jraqnc70_kOx0N8XIIZB-72" value="NanohubPacket::reason" style="swimlane;fontStyle=0;childLayout=stackLayout;horizontal=1;startSize=26;fillColor=none;horizontalStack=0;resizeParent=1;resizeParentMax=0;resizeLast=0;collapsible=1;marginBottom=0;" vertex="1" parent="1">
          <mxGeometry x="-694.5" y="6768" width="280" height="284" as="geometry" />
        </mxCell>
        <mxCell id="jraqnc70_kOx0N8XIIZB-73" value="NANOHUB_REASON_GET_OS_HW_VERSIONS" style="text;strokeColor=none;fillColor=none;align=left;verticalAlign=top;spacingLeft=4;spacingRight=4;overflow=hidden;rotatable=0;points=[[0,0.5],[1,0.5]];portConstraint=eastwest;" vertex="1" parent="jraqnc70_kOx0N8XIIZB-72">
          <mxGeometry y="26" width="280" height="26" as="geometry" />
        </mxCell>
        <mxCell id="jraqnc70_kOx0N8XIIZB-74" value="NANOHUB_REASON_GET_APP_VERSIONS" style="text;strokeColor=none;fillColor=none;align=left;verticalAlign=top;spacingLeft=4;spacingRight=4;overflow=hidden;rotatable=0;points=[[0,0.5],[1,0.5]];portConstraint=eastwest;" vertex="1" parent="jraqnc70_kOx0N8XIIZB-72">
          <mxGeometry y="52" width="280" height="26" as="geometry" />
        </mxCell>
        <mxCell id="jraqnc70_kOx0N8XIIZB-76" value="NANOHUB_REASON_QUERY_APP_INFO" style="text;strokeColor=none;fillColor=none;align=left;verticalAlign=top;spacingLeft=4;spacingRight=4;overflow=hidden;rotatable=0;points=[[0,0.5],[1,0.5]];portConstraint=eastwest;" vertex="1" parent="jraqnc70_kOx0N8XIIZB-72">
          <mxGeometry y="78" width="280" height="26" as="geometry" />
        </mxCell>
        <mxCell id="jraqnc70_kOx0N8XIIZB-77" value="NANOHUB_REASON_GET_APP_VERSIONS" style="text;strokeColor=none;fillColor=none;align=left;verticalAlign=top;spacingLeft=4;spacingRight=4;overflow=hidden;rotatable=0;points=[[0,0.5],[1,0.5]];portConstraint=eastwest;" vertex="1" parent="jraqnc70_kOx0N8XIIZB-72">
          <mxGeometry y="104" width="280" height="26" as="geometry" />
        </mxCell>
        <mxCell id="jraqnc70_kOx0N8XIIZB-78" value="NANOHUB_REASON_GET_INTERRUPT" style="text;strokeColor=none;fillColor=none;align=left;verticalAlign=top;spacingLeft=4;spacingRight=4;overflow=hidden;rotatable=0;points=[[0,0.5],[1,0.5]];portConstraint=eastwest;" vertex="1" parent="jraqnc70_kOx0N8XIIZB-72">
          <mxGeometry y="130" width="280" height="26" as="geometry" />
        </mxCell>
        <mxCell id="jraqnc70_kOx0N8XIIZB-79" value="NANOHUB_REASON_MASK_INTERRUPT" style="text;strokeColor=none;fillColor=none;align=left;verticalAlign=top;spacingLeft=4;spacingRight=4;overflow=hidden;rotatable=0;points=[[0,0.5],[1,0.5]];portConstraint=eastwest;" vertex="1" parent="jraqnc70_kOx0N8XIIZB-72">
          <mxGeometry y="156" width="280" height="24" as="geometry" />
        </mxCell>
        <mxCell id="jraqnc70_kOx0N8XIIZB-80" value="NANOHUB_REASON_UNMASK_INTERRUPT" style="text;strokeColor=none;fillColor=none;align=left;verticalAlign=top;spacingLeft=4;spacingRight=4;overflow=hidden;rotatable=0;points=[[0,0.5],[1,0.5]];portConstraint=eastwest;" vertex="1" parent="jraqnc70_kOx0N8XIIZB-72">
          <mxGeometry y="180" width="280" height="26" as="geometry" />
        </mxCell>
        <mxCell id="jraqnc70_kOx0N8XIIZB-81" value="NANOHUB_REASON_READ_EVENT" style="text;strokeColor=none;fillColor=none;align=left;verticalAlign=top;spacingLeft=4;spacingRight=4;overflow=hidden;rotatable=0;points=[[0,0.5],[1,0.5]];portConstraint=eastwest;" vertex="1" parent="jraqnc70_kOx0N8XIIZB-72">
          <mxGeometry y="206" width="280" height="26" as="geometry" />
        </mxCell>
        <mxCell id="jraqnc70_kOx0N8XIIZB-82" value="NANOHUB_REASON_WRITE_EVENT" style="text;strokeColor=none;fillColor=none;align=left;verticalAlign=top;spacingLeft=4;spacingRight=4;overflow=hidden;rotatable=0;points=[[0,0.5],[1,0.5]];portConstraint=eastwest;" vertex="1" parent="jraqnc70_kOx0N8XIIZB-72">
          <mxGeometry y="232" width="280" height="26" as="geometry" />
        </mxCell>
        <mxCell id="jraqnc70_kOx0N8XIIZB-83" value="......" style="text;strokeColor=none;fillColor=none;align=left;verticalAlign=top;spacingLeft=4;spacingRight=4;overflow=hidden;rotatable=0;points=[[0,0.5],[1,0.5]];portConstraint=eastwest;" vertex="1" parent="jraqnc70_kOx0N8XIIZB-72">
          <mxGeometry y="258" width="280" height="26" as="geometry" />
        </mxCell>
        <mxCell id="jraqnc70_kOx0N8XIIZB-84" value="" style="edgeStyle=elbowEdgeStyle;elbow=vertical;endArrow=classic;html=1;rounded=0;exitX=1;exitY=0.5;exitDx=0;exitDy=0;entryX=1;entryY=0.5;entryDx=0;entryDy=0;" edge="1" parent="1" source="jraqnc70_kOx0N8XIIZB-57" target="jraqnc70_kOx0N8XIIZB-60">
          <mxGeometry width="50" height="50" relative="1" as="geometry">
            <mxPoint x="-944.5" y="7000" as="sourcePoint" />
            <mxPoint x="-894.5" y="6950" as="targetPoint" />
            <Array as="points">
              <mxPoint x="-774.5" y="6890" />
            </Array>
          </mxGeometry>
        </mxCell>
        <mxCell id="jraqnc70_kOx0N8XIIZB-87" value="&lt;span style=&quot;font-size: 12px; font-weight: 400;&quot;&gt;NanohubPacket::reason&lt;/span&gt;" style="text;strokeColor=none;fillColor=none;html=1;fontSize=24;fontStyle=1;verticalAlign=middle;align=center;" vertex="1" parent="1">
          <mxGeometry x="-829.5" y="6860" width="135" height="60" as="geometry" />
        </mxCell>
        <mxCell id="jraqnc70_kOx0N8XIIZB-100" value="struct HostIntfDataBuffer" style="swimlane;fontStyle=0;childLayout=stackLayout;horizontal=1;startSize=26;fillColor=#fff2cc;horizontalStack=0;resizeParent=1;resizeParentMax=0;resizeLast=0;collapsible=1;marginBottom=0;strokeColor=#d6b656;" vertex="1" parent="1">
          <mxGeometry x="-1055" y="7190" width="690" height="400" as="geometry" />
        </mxCell>
        <mxCell id="jraqnc70_kOx0N8XIIZB-101" value="    union&#xa;    {&#xa;        struct&#xa;        {&#xa;            uint8_t sensType;&#xa;            uint8_t length;&#xa;            uint8_t dataType;&#xa;            uint8_t interrupt;&#xa;        };&#xa;        uint32_t evtType;&#xa;    };&#xa;    union&#xa;    {&#xa;        struct&#xa;        {&#xa;            uint64_t referenceTime;&#xa;            union&#xa;            {&#xa;                struct SensorFirstSample firstSample;&#xa;                struct SingleAxisDataPoint single[HOSTINTF_SENSOR_DATA_MAX / sizeof(struct SingleAxisDataPoint)];&#xa;                struct TripleAxisDataPoint triple[HOSTINTF_SENSOR_DATA_MAX / sizeof(struct TripleAxisDataPoint)];&#xa;                struct RawTripleAxisDataPoint rawTriple[HOSTINTF_SENSOR_DATA_MAX / sizeof(struct RawTripleAxisDataPoint)];&#xa;            };&#xa;        };&#xa;        uint8_t buffer[sizeof(uint64_t) + HOSTINTF_SENSOR_DATA_MAX];&#xa;    };" style="text;strokeColor=#666666;fillColor=#f5f5f5;align=left;verticalAlign=top;spacingLeft=4;spacingRight=4;overflow=hidden;rotatable=0;points=[[0,0.5],[1,0.5]];portConstraint=eastwest;fontColor=#333333;" vertex="1" parent="jraqnc70_kOx0N8XIIZB-100">
          <mxGeometry y="26" width="690" height="374" as="geometry" />
        </mxCell>
        <mxCell id="jraqnc70_kOx0N8XIIZB-106" value="" style="rounded=1;whiteSpace=wrap;html=1;fillColor=#d5e8d4;strokeColor=#82b366;" vertex="1" parent="1">
          <mxGeometry x="-950" y="7740" width="520" height="310" as="geometry" />
        </mxCell>
        <mxCell id="jraqnc70_kOx0N8XIIZB-144" value="" style="edgeStyle=orthogonalEdgeStyle;rounded=0;orthogonalLoop=1;jettySize=auto;html=1;" edge="1" parent="1" source="jraqnc70_kOx0N8XIIZB-108" target="jraqnc70_kOx0N8XIIZB-141">
          <mxGeometry relative="1" as="geometry" />
        </mxCell>
        <mxCell id="jraqnc70_kOx0N8XIIZB-145" style="edgeStyle=orthogonalEdgeStyle;rounded=0;orthogonalLoop=1;jettySize=auto;html=1;entryX=0.5;entryY=0;entryDx=0;entryDy=0;" edge="1" parent="1" source="jraqnc70_kOx0N8XIIZB-108" target="jraqnc70_kOx0N8XIIZB-142">
          <mxGeometry relative="1" as="geometry" />
        </mxCell>
        <mxCell id="jraqnc70_kOx0N8XIIZB-108" value="HostIntfDataBuffer" style="rounded=1;labelBackgroundColor=none;fontSize=10;strokeColor=#d6b656;fillColor=#fff2cc;" vertex="1" parent="1">
          <mxGeometry x="-765" y="8210" width="120" height="30" as="geometry" />
        </mxCell>
        <mxCell id="jraqnc70_kOx0N8XIIZB-115" value="" style="html=1;points=[];perimeter=orthogonalPerimeter;" vertex="1" parent="1">
          <mxGeometry x="-730" y="7817" width="10" height="80" as="geometry" />
        </mxCell>
        <mxCell id="jraqnc70_kOx0N8XIIZB-116" value="&lt;span style=&quot;font-size: 10px; background-color: rgb(248, 249, 250);&quot;&gt;hostIntfBridgeRead&lt;/span&gt;" style="html=1;verticalAlign=bottom;startArrow=oval;endArrow=block;startSize=8;rounded=0;" edge="1" target="jraqnc70_kOx0N8XIIZB-115" parent="1">
          <mxGeometry relative="1" as="geometry">
            <mxPoint x="-865" y="7820" as="sourcePoint" />
          </mxGeometry>
        </mxCell>
        <mxCell id="jraqnc70_kOx0N8XIIZB-119" value="" style="shape=umlLifeline;participant=umlBoundary;perimeter=lifelinePerimeter;whiteSpace=wrap;html=1;container=1;collapsible=0;recursiveResize=0;verticalAlign=top;spacingTop=36;outlineConnect=0;" vertex="1" parent="1">
          <mxGeometry x="-895" y="7740" width="50" height="300" as="geometry" />
        </mxCell>
        <mxCell id="jraqnc70_kOx0N8XIIZB-120" value="" style="shape=umlLifeline;participant=umlEntity;perimeter=lifelinePerimeter;whiteSpace=wrap;html=1;container=1;collapsible=0;recursiveResize=0;verticalAlign=top;spacingTop=36;outlineConnect=0;" vertex="1" parent="1">
          <mxGeometry x="-740" y="7740" width="40" height="300" as="geometry" />
        </mxCell>
        <mxCell id="jraqnc70_kOx0N8XIIZB-136" value="" style="html=1;points=[];perimeter=orthogonalPerimeter;" vertex="1" parent="jraqnc70_kOx0N8XIIZB-120">
          <mxGeometry x="20" y="237" width="10" height="40" as="geometry" />
        </mxCell>
        <mxCell id="jraqnc70_kOx0N8XIIZB-137" value="handle cmd" style="edgeStyle=orthogonalEdgeStyle;html=1;align=left;spacingLeft=2;endArrow=block;rounded=0;entryX=1;entryY=0;" edge="1" target="jraqnc70_kOx0N8XIIZB-136" parent="jraqnc70_kOx0N8XIIZB-120">
          <mxGeometry relative="1" as="geometry">
            <mxPoint x="25" y="217" as="sourcePoint" />
            <Array as="points">
              <mxPoint x="55" y="217" />
            </Array>
          </mxGeometry>
        </mxCell>
        <mxCell id="jraqnc70_kOx0N8XIIZB-121" value="" style="html=1;points=[];perimeter=orthogonalPerimeter;" vertex="1" parent="1">
          <mxGeometry x="-720" y="7837" width="10" height="40" as="geometry" />
        </mxCell>
        <mxCell id="jraqnc70_kOx0N8XIIZB-122" value="&lt;span style=&quot;font-size: 10px; text-align: center; background-color: rgb(248, 249, 250);&quot;&gt;hostIntfRxDone&lt;/span&gt;" style="edgeStyle=orthogonalEdgeStyle;html=1;align=left;spacingLeft=2;endArrow=block;rounded=0;entryX=1;entryY=0;" edge="1" target="jraqnc70_kOx0N8XIIZB-121" parent="1">
          <mxGeometry relative="1" as="geometry">
            <mxPoint x="-715" y="7817" as="sourcePoint" />
            <Array as="points">
              <mxPoint x="-685" y="7817" />
            </Array>
          </mxGeometry>
        </mxCell>
        <mxCell id="jraqnc70_kOx0N8XIIZB-123" value="" style="html=1;points=[];perimeter=orthogonalPerimeter;" vertex="1" parent="1">
          <mxGeometry x="-590" y="7877" width="10" height="80" as="geometry" />
        </mxCell>
        <mxCell id="jraqnc70_kOx0N8XIIZB-124" value="&lt;span style=&quot;font-size: 10px; background-color: rgb(248, 249, 250);&quot;&gt;hostIntfFindHandler&lt;/span&gt;" style="html=1;verticalAlign=bottom;startArrow=oval;endArrow=block;startSize=8;rounded=0;" edge="1" target="jraqnc70_kOx0N8XIIZB-123" parent="1">
          <mxGeometry relative="1" as="geometry">
            <mxPoint x="-714.5" y="7877" as="sourcePoint" />
          </mxGeometry>
        </mxCell>
        <mxCell id="jraqnc70_kOx0N8XIIZB-125" value="" style="shape=umlLifeline;participant=umlEntity;perimeter=lifelinePerimeter;whiteSpace=wrap;html=1;container=1;collapsible=0;recursiveResize=0;verticalAlign=top;spacingTop=36;outlineConnect=0;" vertex="1" parent="1">
          <mxGeometry x="-600" y="7740" width="40" height="300" as="geometry" />
        </mxCell>
        <mxCell id="jraqnc70_kOx0N8XIIZB-126" value="" style="html=1;points=[];perimeter=orthogonalPerimeter;" vertex="1" parent="1">
          <mxGeometry x="-580" y="7897" width="10" height="40" as="geometry" />
        </mxCell>
        <mxCell id="jraqnc70_kOx0N8XIIZB-127" value="&lt;span style=&quot;font-size: 10px; text-align: center; background-color: rgb(248, 249, 250);&quot;&gt;match cmd reason&lt;/span&gt;" style="edgeStyle=orthogonalEdgeStyle;html=1;align=left;spacingLeft=2;endArrow=block;rounded=0;entryX=1;entryY=0;" edge="1" target="jraqnc70_kOx0N8XIIZB-126" parent="1">
          <mxGeometry relative="1" as="geometry">
            <mxPoint x="-575" y="7877" as="sourcePoint" />
            <Array as="points">
              <mxPoint x="-545" y="7877" />
            </Array>
          </mxGeometry>
        </mxCell>
        <mxCell id="jraqnc70_kOx0N8XIIZB-128" value="return cmd handler" style="html=1;verticalAlign=bottom;endArrow=open;dashed=1;endSize=8;rounded=0;" edge="1" parent="1" target="jraqnc70_kOx0N8XIIZB-120">
          <mxGeometry relative="1" as="geometry">
            <mxPoint x="-580" y="7957" as="sourcePoint" />
            <mxPoint x="-660" y="7957" as="targetPoint" />
          </mxGeometry>
        </mxCell>
        <mxCell id="jraqnc70_kOx0N8XIIZB-138" value="&lt;span style=&quot;font-size: 10px; background-color: rgb(248, 249, 250);&quot;&gt;GenerateAck&lt;/span&gt;" style="html=1;verticalAlign=bottom;endArrow=open;dashed=1;endSize=8;rounded=0;" edge="1" parent="1" source="jraqnc70_kOx0N8XIIZB-120" target="jraqnc70_kOx0N8XIIZB-119">
          <mxGeometry relative="1" as="geometry">
            <mxPoint x="-500" y="7870" as="sourcePoint" />
            <mxPoint x="-580" y="7870" as="targetPoint" />
            <Array as="points">
              <mxPoint x="-760" y="8020" />
            </Array>
          </mxGeometry>
        </mxCell>
        <mxCell id="jraqnc70_kOx0N8XIIZB-140" value="EVT_APP_TO_HOST&#xa;EVT_DEBUG_LOG" style="rounded=1;labelBackgroundColor=none;fontSize=10;strokeColor=#d79b00;fillColor=#ffe6cc;align=left;" vertex="1" parent="1">
          <mxGeometry x="-829.5" y="8330" width="120" height="40" as="geometry" />
        </mxCell>
        <mxCell id="jraqnc70_kOx0N8XIIZB-146" value="" style="edgeStyle=orthogonalEdgeStyle;rounded=0;orthogonalLoop=1;jettySize=auto;html=1;" edge="1" parent="1" source="jraqnc70_kOx0N8XIIZB-141" target="jraqnc70_kOx0N8XIIZB-140">
          <mxGeometry relative="1" as="geometry" />
        </mxCell>
        <mxCell id="jraqnc70_kOx0N8XIIZB-141" value="buffer" style="rounded=1;labelBackgroundColor=none;fontSize=10;strokeColor=#d6b656;fillColor=#fff2cc;" vertex="1" parent="1">
          <mxGeometry x="-800" y="8270" width="60" height="30" as="geometry" />
        </mxCell>
        <mxCell id="jraqnc70_kOx0N8XIIZB-147" value="" style="edgeStyle=orthogonalEdgeStyle;rounded=0;orthogonalLoop=1;jettySize=auto;html=1;" edge="1" parent="1" source="jraqnc70_kOx0N8XIIZB-142" target="jraqnc70_kOx0N8XIIZB-143">
          <mxGeometry relative="1" as="geometry" />
        </mxCell>
        <mxCell id="jraqnc70_kOx0N8XIIZB-142" value="single/triple/rawTriple" style="rounded=1;labelBackgroundColor=none;fontSize=10;strokeColor=#d6b656;fillColor=#fff2cc;" vertex="1" parent="1">
          <mxGeometry x="-690" y="8270" width="122" height="30" as="geometry" />
        </mxCell>
        <mxCell id="jraqnc70_kOx0N8XIIZB-143" value="SENS_TYPE_GYRO&#xa;SENS_TYPE_GYRO_UNCAL&#xa;SENS_TYPE_MAG&#xa;SENS_TYPE_MAG_UNCAL&#xa;SENS_TYPE_BARO&#xa;SENS_TYPE_TEMP&#xa;SENS_TYPE_ALS&#xa;SENS_TYPE_PROX&#xa;......" style="rounded=1;labelBackgroundColor=none;fontSize=10;strokeColor=#d79b00;fillColor=#ffe6cc;align=left;" vertex="1" parent="1">
          <mxGeometry x="-699" y="8330" width="140" height="120" as="geometry" />
        </mxCell>
        <mxCell id="jraqnc70_kOx0N8XIIZB-150" value="struct Sensor" style="swimlane;fontStyle=0;childLayout=stackLayout;horizontal=1;startSize=26;fillColor=#fff2cc;horizontalStack=0;resizeParent=1;resizeParentMax=0;resizeLast=0;collapsible=1;marginBottom=0;strokeColor=#d6b656;" vertex="1" parent="1">
          <mxGeometry x="-305" y="7740" width="640" height="160" as="geometry" />
        </mxCell>
        <mxCell id="jraqnc70_kOx0N8XIIZB-151" value="    const struct SensorInfo *si;&#xa;    uint32_t handle;         /* here 0 means invalid */&#xa;    uint64_t currentLatency; /* here 0 means no batching */&#xa;    uint32_t currentRate;    /* here 0 means off */&#xa;    TaggedPtr callInfo;      /* pointer to ops struct or app tid */&#xa;    void *callData;&#xa;    uint32_t initComplete:1; /* sensor finished initializing */&#xa;    uint32_t hasOnchange :1; /* sensor supports onchange and wants to be notified to send new clients current state */&#xa;    uint32_t hasOndemand :1; /* sensor supports ondemand and wants to get triggers */" style="text;strokeColor=#666666;fillColor=#f5f5f5;align=left;verticalAlign=top;spacingLeft=4;spacingRight=4;overflow=hidden;rotatable=0;points=[[0,0.5],[1,0.5]];portConstraint=eastwest;fontColor=#333333;" vertex="1" parent="jraqnc70_kOx0N8XIIZB-150">
          <mxGeometry y="26" width="640" height="134" as="geometry" />
        </mxCell>
        <mxCell id="jraqnc70_kOx0N8XIIZB-153" value="struct SensorInfo" style="swimlane;fontStyle=0;childLayout=stackLayout;horizontal=1;startSize=26;fillColor=#fff2cc;horizontalStack=0;resizeParent=1;resizeParentMax=0;resizeLast=0;collapsible=1;marginBottom=0;strokeColor=#d6b656;" vertex="1" parent="1">
          <mxGeometry x="-305" y="7920" width="380" height="160" as="geometry" />
        </mxCell>
        <mxCell id="jraqnc70_kOx0N8XIIZB-154" value="    const uint32_t *supportedRates;&#xa;    uint8_t sensorType;&#xa;    uint8_t numAxis; /* enum NumAxis */&#xa;    uint8_t interrupt; /* interrupt to generate to AP */&#xa;    uint8_t flags1; /* enum SensorInfoFlags1 */&#xa;    uint16_t minSamples; /* minimum host fifo size (in # of samples) */&#xa;    uint8_t biasType;&#xa;    uint8_t rawType;&#xa;    float rawScale;" style="text;strokeColor=#666666;fillColor=#f5f5f5;align=left;verticalAlign=top;spacingLeft=4;spacingRight=4;overflow=hidden;rotatable=0;points=[[0,0.5],[1,0.5]];portConstraint=eastwest;fontColor=#333333;" vertex="1" parent="jraqnc70_kOx0N8XIIZB-153">
          <mxGeometry y="26" width="380" height="134" as="geometry" />
        </mxCell>
        <mxCell id="jraqnc70_kOx0N8XIIZB-155" value="" style="edgeStyle=elbowEdgeStyle;elbow=vertical;endArrow=classic;html=1;rounded=0;entryX=0;entryY=0.5;entryDx=0;entryDy=0;exitX=0;exitY=0.5;exitDx=0;exitDy=0;" edge="1" parent="1" source="jraqnc70_kOx0N8XIIZB-150" target="jraqnc70_kOx0N8XIIZB-153">
          <mxGeometry width="50" height="50" relative="1" as="geometry">
            <mxPoint x="-310" y="7840" as="sourcePoint" />
            <mxPoint x="10" y="7800" as="targetPoint" />
            <Array as="points">
              <mxPoint x="-350" y="7928" />
            </Array>
          </mxGeometry>
        </mxCell>
        <mxCell id="jraqnc70_kOx0N8XIIZB-221" value="SENSOR_RATE_OFF" style="rounded=1;labelBackgroundColor=none;fontSize=10;strokeColor=#d6b656;fillColor=#fff2cc;" vertex="1" parent="1">
          <mxGeometry x="-479" y="8830" width="120" height="30" as="geometry" />
        </mxCell>
        <mxCell id="jraqnc70_kOx0N8XIIZB-227" value="" style="edgeStyle=orthogonalEdgeStyle;rounded=0;orthogonalLoop=1;jettySize=auto;html=1;fontSize=1;" edge="1" parent="1" source="jraqnc70_kOx0N8XIIZB-223" target="jraqnc70_kOx0N8XIIZB-226">
          <mxGeometry relative="1" as="geometry">
            <Array as="points">
              <mxPoint x="-120" y="8840" />
              <mxPoint x="-229" y="8840" />
            </Array>
          </mxGeometry>
        </mxCell>
        <mxCell id="jraqnc70_kOx0N8XIIZB-223" value="sensorReconfig" style="rounded=1;labelBackgroundColor=none;fontSize=10;strokeColor=#d6b656;fillColor=#fff2cc;" vertex="1" parent="1">
          <mxGeometry x="-180" y="8800" width="120" height="30" as="geometry" />
        </mxCell>
        <mxCell id="jraqnc70_kOx0N8XIIZB-229" value="" style="edgeStyle=orthogonalEdgeStyle;rounded=0;orthogonalLoop=1;jettySize=auto;html=1;fontSize=1;" edge="1" parent="1" source="jraqnc70_kOx0N8XIIZB-226" target="jraqnc70_kOx0N8XIIZB-228">
          <mxGeometry relative="1" as="geometry" />
        </mxCell>
        <mxCell id="jraqnc70_kOx0N8XIIZB-226" value="sensorCallFuncPower" style="rounded=1;labelBackgroundColor=none;fontSize=10;strokeColor=#d6b656;fillColor=#fff2cc;" vertex="1" parent="1">
          <mxGeometry x="-289.5" y="8860.04" width="120" height="30" as="geometry" />
        </mxCell>
        <mxCell id="jraqnc70_kOx0N8XIIZB-232" value="" style="edgeStyle=orthogonalEdgeStyle;rounded=0;orthogonalLoop=1;jettySize=auto;html=1;fontSize=1;" edge="1" parent="1" source="jraqnc70_kOx0N8XIIZB-228" target="jraqnc70_kOx0N8XIIZB-231">
          <mxGeometry relative="1" as="geometry" />
        </mxCell>
        <mxCell id="jraqnc70_kOx0N8XIIZB-228" value="sensorInternalPowerStateChanged" style="rounded=1;labelBackgroundColor=none;fontSize=10;strokeColor=#d6b656;fillColor=#fff2cc;" vertex="1" parent="1">
          <mxGeometry x="-319" y="8920.04" width="179" height="30" as="geometry" />
        </mxCell>
        <mxCell id="jraqnc70_kOx0N8XIIZB-230" value="SENSOR_RATE_POWERING_ON" style="rounded=1;labelBackgroundColor=none;fontSize=10;strokeColor=#d6b656;fillColor=#fff2cc;" vertex="1" parent="1">
          <mxGeometry x="-520" y="8890" width="160" height="30" as="geometry" />
        </mxCell>
        <mxCell id="jraqnc70_kOx0N8XIIZB-235" value="" style="edgeStyle=orthogonalEdgeStyle;rounded=0;orthogonalLoop=1;jettySize=auto;html=1;fontSize=1;" edge="1" parent="1" source="jraqnc70_kOx0N8XIIZB-231" target="jraqnc70_kOx0N8XIIZB-234">
          <mxGeometry relative="1" as="geometry" />
        </mxCell>
        <mxCell id="jraqnc70_kOx0N8XIIZB-231" value="sensorCallFuncFwUpld" style="rounded=1;labelBackgroundColor=none;fontSize=10;strokeColor=#d6b656;fillColor=#fff2cc;" vertex="1" parent="1">
          <mxGeometry x="-289.5" y="8980.04" width="120" height="30" as="geometry" />
        </mxCell>
        <mxCell id="jraqnc70_kOx0N8XIIZB-233" value="SENSOR_RATE_FW_UPLOADING" style="rounded=1;labelBackgroundColor=none;fontSize=10;strokeColor=#d6b656;fillColor=#fff2cc;" vertex="1" parent="1">
          <mxGeometry x="-519" y="8950" width="160" height="30" as="geometry" />
        </mxCell>
        <mxCell id="jraqnc70_kOx0N8XIIZB-237" style="edgeStyle=orthogonalEdgeStyle;rounded=0;orthogonalLoop=1;jettySize=auto;html=1;entryX=1;entryY=0.5;entryDx=0;entryDy=0;fontSize=1;exitX=0.5;exitY=1;exitDx=0;exitDy=0;" edge="1" parent="1" source="jraqnc70_kOx0N8XIIZB-234" target="jraqnc70_kOx0N8XIIZB-223">
          <mxGeometry relative="1" as="geometry">
            <Array as="points">
              <mxPoint x="-229" y="9100" />
              <mxPoint x="200" y="9100" />
              <mxPoint x="200" y="8815" />
            </Array>
          </mxGeometry>
        </mxCell>
        <mxCell id="jraqnc70_kOx0N8XIIZB-234" value="sensorInternalFwStateChanged" style="rounded=1;labelBackgroundColor=none;fontSize=10;strokeColor=#d6b656;fillColor=#fff2cc;" vertex="1" parent="1">
          <mxGeometry x="-306.5" y="9040.04" width="154" height="30" as="geometry" />
        </mxCell>
        <mxCell id="jraqnc70_kOx0N8XIIZB-236" value="SENSOR_RATE_FW_UPLOADING" style="rounded=1;labelBackgroundColor=none;fontSize=10;strokeColor=#d6b656;fillColor=#fff2cc;" vertex="1" parent="1">
          <mxGeometry x="-515" y="9010" width="160" height="30" as="geometry" />
        </mxCell>
        <mxCell id="jraqnc70_kOx0N8XIIZB-238" value="1" style="rounded=1;labelBackgroundColor=none;fontSize=10;strokeColor=#d6b656;fillColor=#fff2cc;" vertex="1" parent="1">
          <mxGeometry x="-515" y="9070" width="160" height="30" as="geometry" />
        </mxCell>
        <mxCell id="jraqnc70_kOx0N8XIIZB-241" value="currentRate" style="ellipse;shape=umlEntity;whiteSpace=wrap;labelBorderColor=none;fontSize=1;" vertex="1" parent="1">
          <mxGeometry x="-475" y="8720" width="80" height="80" as="geometry" />
        </mxCell>
        <mxCell id="jraqnc70_kOx0N8XIIZB-242" value="CAll Flow" style="ellipse;shape=umlControl;whiteSpace=wrap;html=1;labelBorderColor=none;fontSize=1;" vertex="1" parent="1">
          <mxGeometry x="-150" y="8720" width="70" height="80" as="geometry" />
        </mxCell>
        <mxCell id="jraqnc70_kOx0N8XIIZB-254" value="" style="edgeStyle=orthogonalEdgeStyle;rounded=0;orthogonalLoop=1;jettySize=auto;html=1;fontSize=1;" edge="1" parent="1" source="jraqnc70_kOx0N8XIIZB-244" target="jraqnc70_kOx0N8XIIZB-246">
          <mxGeometry relative="1" as="geometry" />
        </mxCell>
        <mxCell id="jraqnc70_kOx0N8XIIZB-244" value="sensorCallFuncSetRate" style="rounded=1;labelBackgroundColor=none;fontSize=10;strokeColor=#d6b656;fillColor=#fff2cc;" vertex="1" parent="1">
          <mxGeometry x="-70" y="8860" width="120" height="30" as="geometry" />
        </mxCell>
        <mxCell id="jraqnc70_kOx0N8XIIZB-249" style="edgeStyle=orthogonalEdgeStyle;rounded=0;orthogonalLoop=1;jettySize=auto;html=1;fontSize=1;entryX=1;entryY=0.5;entryDx=0;entryDy=0;" edge="1" parent="1" source="jraqnc70_kOx0N8XIIZB-246" target="jraqnc70_kOx0N8XIIZB-223">
          <mxGeometry relative="1" as="geometry">
            <Array as="points">
              <mxPoint x="-10" y="9100" />
              <mxPoint x="200" y="9100" />
              <mxPoint x="200" y="8815" />
            </Array>
          </mxGeometry>
        </mxCell>
        <mxCell id="jraqnc70_kOx0N8XIIZB-246" value="sensorInternalRateChanged" style="rounded=1;labelBackgroundColor=none;fontSize=10;strokeColor=#d6b656;fillColor=#fff2cc;" vertex="1" parent="1">
          <mxGeometry x="-75" y="8920" width="130" height="30" as="geometry" />
        </mxCell>
        <mxCell id="jraqnc70_kOx0N8XIIZB-247" value="req-&gt;rate" style="rounded=1;labelBackgroundColor=none;fontSize=10;strokeColor=#d6b656;fillColor=#fff2cc;" vertex="1" parent="1">
          <mxGeometry x="70" y="8950.04" width="110" height="30" as="geometry" />
        </mxCell>
        <mxCell id="jraqnc70_kOx0N8XIIZB-251" value="1" style="rounded=1;labelBackgroundColor=none;fontSize=10;strokeColor=#d6b656;fillColor=#fff2cc;" vertex="1" parent="1">
          <mxGeometry x="70" y="8830" width="90" height="30" as="geometry" />
        </mxCell>
        <mxCell id="jraqnc70_kOx0N8XIIZB-252" value="1" style="rounded=1;labelBackgroundColor=none;fontSize=10;strokeColor=#d6b656;fillColor=#fff2cc;" vertex="1" parent="1">
          <mxGeometry x="70" y="8890.04" width="100" height="30" as="geometry" />
        </mxCell>
        <mxCell id="jraqnc70_kOx0N8XIIZB-263" value="" style="edgeStyle=elbowEdgeStyle;elbow=vertical;endArrow=classic;html=1;rounded=0;fontSize=1;" edge="1" parent="1">
          <mxGeometry width="50" height="50" relative="1" as="geometry">
            <mxPoint x="-120" y="8840.04" as="sourcePoint" />
            <mxPoint x="-10" y="8860" as="targetPoint" />
            <Array as="points">
              <mxPoint x="-70" y="8840.04" />
            </Array>
          </mxGeometry>
        </mxCell>
        <mxCell id="jraqnc70_kOx0N8XIIZB-265" value="currentRate" style="ellipse;shape=umlEntity;whiteSpace=wrap;labelBorderColor=none;fontSize=1;" vertex="1" parent="1">
          <mxGeometry x="70" y="8720" width="80" height="80" as="geometry" />
        </mxCell>
        <mxCell id="jraqnc70_kOx0N8XIIZB-266" value="currentRate == newHwRate &amp;&amp; currentLatency == newHwLatency" style="ellipse;shape=cloud;whiteSpace=wrap;labelBorderColor=none;fontSize=1;" vertex="1" parent="1">
          <mxGeometry x="-399.5" y="8720" width="230" height="80" as="geometry" />
        </mxCell>
        <mxCell id="jraqnc70_kOx0N8XIIZB-267" value="" style="endArrow=none;dashed=1;html=1;dashPattern=1 3;strokeWidth=2;rounded=0;fontSize=1;entryX=0.55;entryY=0.95;entryDx=0;entryDy=0;entryPerimeter=0;exitX=0;exitY=0.5;exitDx=0;exitDy=0;" edge="1" parent="1" source="jraqnc70_kOx0N8XIIZB-223" target="jraqnc70_kOx0N8XIIZB-266">
          <mxGeometry width="50" height="50" relative="1" as="geometry">
            <mxPoint x="-200" y="8870" as="sourcePoint" />
            <mxPoint x="-150" y="8820" as="targetPoint" />
          </mxGeometry>
        </mxCell>
        <mxCell id="jraqnc70_kOx0N8XIIZB-281" value="" style="edgeStyle=orthogonalEdgeStyle;rounded=0;orthogonalLoop=1;jettySize=auto;html=1;fontSize=1;entryX=0.5;entryY=0;entryDx=0;entryDy=0;" edge="1" parent="1" source="jraqnc70_kOx0N8XIIZB-275" target="jraqnc70_kOx0N8XIIZB-276">
          <mxGeometry relative="1" as="geometry" />
        </mxCell>
        <mxCell id="jraqnc70_kOx0N8XIIZB-275" value="sensor data" style="rounded=1;labelBackgroundColor=none;fontSize=10;strokeColor=#d6b656;fillColor=#fff2cc;" vertex="1" parent="1">
          <mxGeometry x="-610" y="9320" width="160" height="30" as="geometry" />
        </mxCell>
        <mxCell id="jraqnc70_kOx0N8XIIZB-285" value="" style="edgeStyle=orthogonalEdgeStyle;rounded=0;orthogonalLoop=1;jettySize=auto;html=1;fontSize=1;" edge="1" parent="1" source="jraqnc70_kOx0N8XIIZB-276" target="jraqnc70_kOx0N8XIIZB-283">
          <mxGeometry relative="1" as="geometry" />
        </mxCell>
        <mxCell id="jraqnc70_kOx0N8XIIZB-288" style="edgeStyle=orthogonalEdgeStyle;rounded=0;orthogonalLoop=1;jettySize=auto;html=1;fontSize=1;" edge="1" parent="1" source="jraqnc70_kOx0N8XIIZB-276" target="jraqnc70_kOx0N8XIIZB-286">
          <mxGeometry relative="1" as="geometry" />
        </mxCell>
        <mxCell id="jraqnc70_kOx0N8XIIZB-276" value="ActiveSensor-&gt;buffer" style="rounded=1;labelBackgroundColor=none;fontSize=10;strokeColor=#d6b656;fillColor=#fff2cc;" vertex="1" parent="1">
          <mxGeometry x="-610" y="9380" width="160" height="30" as="geometry" />
        </mxCell>
        <mxCell id="jraqnc70_kOx0N8XIIZB-283" value="Gen intterrupt" style="rounded=1;labelBackgroundColor=none;fontSize=10;strokeColor=#d6b656;fillColor=#fff2cc;" vertex="1" parent="1">
          <mxGeometry x="-575" y="9540" width="90" height="30" as="geometry" />
        </mxCell>
        <mxCell id="jraqnc70_kOx0N8XIIZB-284" value="&#xa;&lt;span style=&quot;color: rgb(0, 0, 0); font-family: Helvetica; font-size: 10px; font-style: normal; font-variant-ligatures: normal; font-variant-caps: normal; font-weight: 400; letter-spacing: normal; orphans: 2; text-align: center; text-indent: 0px; text-transform: none; widows: 2; word-spacing: 0px; -webkit-text-stroke-width: 0px; background-color: rgb(248, 249, 250); text-decoration-thickness: initial; text-decoration-style: initial; text-decoration-color: initial; float: none; display: inline !important;&quot;&gt;sensorTime &amp;gt;= sensor-&amp;gt;firstTime + sensor-&amp;gt;latency ||&lt;/span&gt;&lt;br style=&quot;padding: 0px; margin: 0px; color: rgb(0, 0, 0); font-family: Helvetica; font-size: 10px; font-style: normal; font-variant-ligatures: normal; font-variant-caps: normal; font-weight: 400; letter-spacing: normal; orphans: 2; text-align: center; text-indent: 0px; text-transform: none; widows: 2; word-spacing: 0px; -webkit-text-stroke-width: 0px; background-color: rgb(248, 249, 250); text-decoration-thickness: initial; text-decoration-style: initial; text-decoration-color: initial;&quot;&gt;&lt;span style=&quot;color: rgb(0, 0, 0); font-family: Helvetica; font-size: 10px; font-style: normal; font-variant-ligatures: normal; font-variant-caps: normal; font-weight: 400; letter-spacing: normal; orphans: 2; text-align: center; text-indent: 0px; text-transform: none; widows: 2; word-spacing: 0px; -webkit-text-stroke-width: 0px; background-color: rgb(248, 249, 250); text-decoration-thickness: initial; text-decoration-style: initial; text-decoration-color: initial; float: none; display: inline !important;&quot;&gt;mWakeupBlocks + mNonWakeupBlocks &amp;gt;= mTotalBlocks&lt;/span&gt;&#xa;&#xa;" style="ellipse;shape=cloud;whiteSpace=wrap;html=1;labelBorderColor=none;fontSize=1;" vertex="1" parent="1">
          <mxGeometry x="-728.5" y="9410" width="380" height="120" as="geometry" />
        </mxCell>
        <mxCell id="jraqnc70_kOx0N8XIIZB-286" value="enqueueSensorBuffer" style="rounded=1;labelBackgroundColor=none;fontSize=10;strokeColor=#d6b656;fillColor=#fff2cc;" vertex="1" parent="1">
          <mxGeometry x="-235" y="9380" width="160" height="30" as="geometry" />
        </mxCell>
        <mxCell id="jraqnc70_kOx0N8XIIZB-287" value="haveFlush || &#xa;numSamples == packetSamples" style="ellipse;shape=cloud;whiteSpace=wrap;labelBorderColor=none;fontSize=1;" vertex="1" parent="1">
          <mxGeometry x="-430" y="9340" width="165" height="80" as="geometry" />
        </mxCell>
        <mxCell id="jraqnc70_kOx0N8XIIZB-291" value="" style="edgeStyle=elbowEdgeStyle;elbow=vertical;endArrow=classic;html=1;rounded=0;fontSize=1;entryX=0.524;entryY=0.116;entryDx=0;entryDy=0;entryPerimeter=0;exitX=0.5;exitY=1;exitDx=0;exitDy=0;" edge="1" parent="1" source="jraqnc70_kOx0N8XIIZB-286" target="jraqnc70_kOx0N8XIIZB-284">
          <mxGeometry width="50" height="50" relative="1" as="geometry">
            <mxPoint x="-350" y="9350" as="sourcePoint" />
            <mxPoint x="-300" y="9300" as="targetPoint" />
            <Array as="points">
              <mxPoint x="-320" y="9424" />
              <mxPoint x="-290" y="9430" />
            </Array>
          </mxGeometry>
        </mxCell>
      </root>
    </mxGraphModel>
  </diagram>
</mxfile>
